<svg id="Layer_1" data-name="Layer 1" xmlns="http://www.w3.org/2000/svg" viewBox="0 0 100 100"><defs><style>.cls-1{fill:#666;}</style></defs><circle class="cls-1" cx="50.75" cy="35.43" r="2.28"/><path class="cls-1" d="M50.75,61.32A2.28,2.28,0,1,0,53,63.59,2.27,2.27,0,0,0,50.75,61.32Z"/><circle class="cls-1" cx="36.67" cy="49.51" r="2.28"/><circle class="cls-1" cx="64.84" cy="49.51" r="2.28"/><path class="cls-1" d="M42.4,57.86a2.28,2.28,0,1,0,0,3.22A2.28,2.28,0,0,0,42.4,57.86Z"/><path class="cls-1" d="M59.1,41.16a2.28,2.28,0,1,0,0-3.22A2.28,2.28,0,0,0,59.1,41.16Z"/><path class="cls-1" d="M62.32,57.86a2.28,2.28,0,1,0,0,3.22A2.28,2.28,0,0,0,62.32,57.86Z"/><circle class="cls-1" cx="40.79" cy="39.55" r="2.28"/><path class="cls-1" d="M50.75,31.74A8.38,8.38,0,0,0,59,24.62l.09-.58-.57-.17a26.6,26.6,0,0,0-15.54,0l-.56.17.08.58A8.39,8.39,0,0,0,50.75,31.74Z"/><path class="cls-1" d="M50.75,67.28A8.39,8.39,0,0,0,42.5,74.4l-.08.58.56.18a26.82,26.82,0,0,0,15.54,0l.57-.18L59,74.4A8.38,8.38,0,0,0,50.75,67.28Z"/><path class="cls-1" d="M33,49.51a8.4,8.4,0,0,0-7.13-8.25l-.58-.08-.17.56a26.6,26.6,0,0,0,0,15.54l.17.57.58-.09A8.4,8.4,0,0,0,33,49.51Z"/><path class="cls-1" d="M76.23,41.18l-.59.08a8.34,8.34,0,0,0,0,16.5l.59.09.17-.57a26.82,26.82,0,0,0,0-15.54Z"/><path class="cls-1" d="M32.32,59.65a8.3,8.3,0,0,0-5,1.65l-.47.35.27.52a26.85,26.85,0,0,0,11,11l.52.28.35-.48a8.36,8.36,0,0,0-.77-10.85A8.24,8.24,0,0,0,32.32,59.65Z"/><path class="cls-1" d="M69.18,39.38a8.3,8.3,0,0,0,5-1.66l.47-.35-.28-.52a26.85,26.85,0,0,0-11-11l-.52-.28-.35.48A8.37,8.37,0,0,0,63.32,37,8.24,8.24,0,0,0,69.18,39.38Z"/><path class="cls-1" d="M69.18,59.65a8.2,8.2,0,0,0-5.86,2.43,8.36,8.36,0,0,0-.78,10.85l.35.48.52-.28a26.73,26.73,0,0,0,11-11l.28-.52-.47-.35A8.35,8.35,0,0,0,69.18,59.65Z"/><path class="cls-1" d="M32.32,39.38h0A8.27,8.27,0,0,0,38.19,37,8.37,8.37,0,0,0,39,26.09l-.35-.48-.52.28a26.91,26.91,0,0,0-11,11l-.27.52.47.35A8.25,8.25,0,0,0,32.32,39.38Z"/><path class="cls-1" d="M50.75,7.82A41.69,41.69,0,1,0,92.44,49.51,41.74,41.74,0,0,0,50.75,7.82Zm0,79.82a38.13,38.13,0,0,1,0-76.26,38.13,38.13,0,0,1,27,65.09A37.87,37.87,0,0,1,50.75,87.64Z"/></svg>