<svg id="Layer_1" data-name="Layer 1" xmlns="http://www.w3.org/2000/svg" viewBox="0 0 100 100"><defs><style>.cls-1{fill:#666;}</style></defs><path class="cls-1" d="M84.05,18.39v-.05H73.55V28.1a3.85,3.85,0,1,1-7.7,0V18.34H29.92V28.1a3.85,3.85,0,1,1-7.7,0V18.34H13v.05H9.93v73H86.17v-73ZM82.47,87.64H13.63V41.27H82.47Z"/><path class="cls-1" d="M69.7,30a1.85,1.85,0,0,0,1.85-1.85V10.8a1.85,1.85,0,1,0-3.7,0V28.1A1.85,1.85,0,0,0,69.7,30Z"/><rect class="cls-1" x="19.41" y="51.51" width="57.28" height="3.7"/><rect class="cls-1" x="19.41" y="62" width="57.28" height="3.7"/><rect class="cls-1" x="19.42" y="72.48" width="57.27" height="3.7"/><path class="cls-1" d="M26.07,30a1.85,1.85,0,0,0,1.85-1.85V10.8a1.85,1.85,0,0,0-3.7,0V28.1A1.85,1.85,0,0,0,26.07,30Z"/></svg>