<svg id="Layer_1" data-name="Layer 1" xmlns="http://www.w3.org/2000/svg" viewBox="0 0 100 100"><defs><style>.cls-1{fill:#666;}</style></defs><path class="cls-1" d="M50.05,11.18A39.1,39.1,0,1,0,89.14,50.27,39.09,39.09,0,0,0,50.05,11.18ZM62.35,65.6a15.92,15.92,0,0,1-8.77,3.83v8.14H46.26v-8.2a31.34,31.34,0,0,1-7.51-2.14,25.25,25.25,0,0,1-6.35-3.85l3.9-7.87a24.28,24.28,0,0,0,6.91,4.24,18.83,18.83,0,0,0,7.06,1.65,6.54,6.54,0,0,0,3.55-.83,2.69,2.69,0,0,0,1.3-2.42,2.87,2.87,0,0,0-1-2.2,7.2,7.2,0,0,0-2.42-1.4c-1-.35-2.34-.76-4.1-1.24a48.56,48.56,0,0,1-6.54-2.23,11.55,11.55,0,0,1-4.43-3.41,9.35,9.35,0,0,1-1.84-6.07,10.45,10.45,0,0,1,3-7.68,14.62,14.62,0,0,1,8.39-3.87V22.23h7.32v7.71A30.71,30.71,0,0,1,60,31.39a26,26,0,0,1,5.61,2.67l-3.79,8a34,34,0,0,0-6.58-3A19.33,19.33,0,0,0,49.39,38a5.42,5.42,0,0,0-2.94.68,2.25,2.25,0,0,0-1.07,2,2.77,2.77,0,0,0,.93,2.12,7.11,7.11,0,0,0,2.31,1.37c.92.35,2.28.8,4.07,1.35a52.71,52.71,0,0,1,6.63,2.31,11.61,11.61,0,0,1,4.49,3.55,9.88,9.88,0,0,1,1.87,6.24A10.33,10.33,0,0,1,62.35,65.6Z"/></svg>