<?xml version="1.0" encoding="UTF-8"?><svg xmlns="http://www.w3.org/2000/svg" viewBox="0 0 400 286.04"><defs><style>.cls-1{fill:#fff;}.cls-2{fill:#ffd278;}.cls-3{fill:#ffce52;}.cls-4{fill:#172c55;}</style></defs><path class="cls-1" d="M263.33,226.02c-.74-1.72-1.43-3.46-2.07-5.18-20.03,6.64-47.25,11.51-72.37,5.42-1.59,.29-3.18,.58-4.78,.88-.65,.29-1.38,.52-2.2,.65-3.1,.5-6.22,1.03-9.34,1.59-.5,.1-1,.2-1.49,.3,12.69,3.83,26.34,5.92,40.56,5.92,17.06,0,35.95-4.07,51.7-9.58Z"/><path class="cls-1" d="M50.45,271.34c-3.47,0-8.15-1.61-9.96-6.13-1.81-4.53-1.22-8.83,1.59-11.5,.44-.42,1-.88,1.64-1.42,1.03-.86,3.17-2.64,3.72-3.58,.27-.46,.92-1.59,1.2-2.26-1.89-7.01-16.58-62.01-19.59-73.29l-.22-.83c-.42-.38-1.2-.94-2.38-1.33l-.67-.21c-3.41-1.1-6.36-2.05-8.56-2.58-4.75-1.13-7.14-4.94-7.75-7.86-.77-3.69,.73-11.21,7.81-12.71,3.54-.75,40.86-5.13,53.81-6.64l-8.07-39.05,13.06-.37c-.14-.82-.26-1.62-.35-2.32-.15-1.15-.29-1.92-.39-2.38-1.64-2.46-6.61-10.36-8.55-17.84-2.06-7.99-2.1-9.59-1.97-11.95l.14-2.71c-.46-2.43-.91-6.04-.39-8.23,.58-2.45,2.24-5.81,3.45-7.52,1.33-1.87,2.54-2.72,2.99-2.99l1.55-.94c.77-1.74,1.62-3.09,2.57-4.13,.64-.7,1.63-1.65,2.99-2.14,.99-1.54,2.58-3.43,4.83-4.32,.63-.26,1.31-.39,1.99-.39,.75,0,1.49,.16,2.17,.47,1.05-1.13,2.27-1.68,3.7-1.68l.56,.03,.99,.09,.88,.48c1.23,.67,2.07,1.68,2.58,3.08,.86,.22,1.72,.63,2.52,1.23,3.02-1.99,7.03-4.53,10.02-6.09l1.51-.79c4.84-2.55,10.84-5.72,23.01-9.88,8.35-2.85,17.34-5.02,26.74-6.43l.51-.08c1.52-.25,14.76-1.84,23.13-1.93,.87,0,1.74-.01,2.61-.01,7.83,0,15.23,.38,20.83,1.08,6.41,.79,22.01,3.64,29.15,5.64,.76,.19,1.23,.31,1.55,.39,3.98,1.04,4.4,4.21,4.02,5.92-.41,1.84-2.08,3.82-4.82,3.82-.31,0-.64-.03-.99-.08l-3.37-.64c-2.57-.5-6.59-1.29-10.8-2.04-.24,1.69-1.5,4.11-5.07,4.35-.41,.03-1,.05-1.73,.07-1.32,.03-3.16,.05-5.26,.08-5.62,.06-15.02,.17-17.91,.69l-2.12,.37c-6.01,1.04-14.21,2.47-23.6,6.08-9.96,3.83-17.56,7.54-23.92,11.69-6.71,4.38-12.1,8.45-15.59,11.78-2.37,2.26-5.56,5.59-7.95,8.13,1.07,2.59,1.96,4.58,2.53,5.62,.83,1.53,3.97,6.88,9.6,11.55,4.13,3.44,4.8,3.68,5.19,3.82,.27,.1,.55,.2,.88,.35l5.23,2.27c1.19-.65,2.34-1.18,3.42-1.58,.42-.16,.92-.35,1.45-.56l-4.93-9.3,11.21,4.3,.21-.04s6.54-1.37,9.34-1.37c.3,0,7.41,.01,12.97,.91,1.47,.24,2.56,.42,3.37,.57,1.11-.67,2.23-1.28,3.33-1.81,1.56-.75,3.57-1.59,4.83-2.11,.7-1.94,1.71-4.42,2.78-5.93,.94-1.34,3.32-4.58,5.34-6.24,.01-1.25,.31-2.03,.59-2.57,.28-.54,2.74-5.21,5-7.67l.59-.64c.6-.65,1.13-1.23,1.65-1.77-.65-.91-1.11-1.89-1.37-2.92-.83-3.42-1.27-7.92,2.76-12.44,3.25-3.64,6.83-5.19,11.97-5.19h.47c4.16,.07,8.47,1.34,10.55,1.95l.22,.07c1.56-.89,3.61-1.98,5.15-2.47,.45-.15,4.37-1.4,6.68-1.47,1.51-1.08,3.67-2.42,5.82-3,.14-.04,3.48-.93,6.39-.93,.96,0,1.8,.1,2.48,.3,.66,.19,1.57,.55,3.11,1.18,.9,.36,1.86,.75,2.34,.93,.25-.2,.5-.4,.7-.56,1.59-1.28,2.54-2.02,3.54-2.45,1.13-.52,2.82-1.32,5.15-1.32,.93,0,1.89,.13,2.84,.38,1.36,.36,5.95,1.69,8.01,3.67,1.59,1.53,3.05,3.47,2.95,7.36l-.03,.83c-.03,1.23-.13,4.93,0,5.71,.15,.72,.4,1.53,.68,2.47l.33,1.11c.84,2.88,.25,5.04-.04,6.07-.23,.85-.46,2.75-.41,3.17,.13,.99,.18,2.29,.21,3.36l.05,1.09c.67,3.28,1.06,5.65,1.15,6.92,.18,2.48,.41,8.64-1.24,12.14-.81,1.72-1.66,3.35-2.35,4.66-.32,.6-.59,1.14-.82,1.58-.26,.51-.4,.84-.52,1.11-.22,.49-.42,.95-.82,1.69-.58,1.07-.86,1.52-1.27,2.19l-.27,.43-.09,.38c-.31,.99-1.45,5.21-1.98,7.54,.3,.39,.61,.76,.81,.96l.13,.06,.5,.31c1.53-.51,4.64-1.43,7.58-1.64l1.02-.08c2.04-.15,4.83-.36,7.67-.36,1.22,0,2.45,.04,3.63,.13,4.27,.35,8.84,.99,8.88,1l15.31,2.15-2.41,1.23c1.4,.52,2.31,.96,2.36,.99l9.99,4.81-4.44,1.78,.17,.03c.79,.14,1.2,.21,1.56,.31,.35,.1,.7,.23,1.07,.37l.22,.08c1.18-.26,2.93-.74,3.44-.97,.83-.52,1.87-.81,2.91-.81,1.51,0,2.9,.61,3.92,1.72l.28,.34c2.46,.1,8.52,.55,11.65,1.57,1.59,.52,2.84,.97,3.95,1.37,.85,.31,1.59,.57,2.27,.8l1.54,.5c2.09,.02,4.04,1.64,4.53,3.9,.18,.83,.15,1.65-.09,2.47,.75,.68,1.46,1.38,1.76,1.75l1.36,1.71-.92,1.03c1.61,1.68,3.63,4.56,4.47,7.2,.62,1.96,1.09,3.54,1.09,3.54l2.1,7.15-3.16-.4c.09,.9,.13,1.8,.11,2.69-.1,4.93-.21,11.06-2.11,15.3-3.91,12.66-18.48,17.27-24.71,19.25l-.45,.15c-1.62,5.6-2.86,8.97-3.8,10.3-.33,.47-.64,.89-.95,1.27,.8,1.33,1.34,2.64,1.6,3.91,.7,3.28,1.3,6.11-.72,9.64l-.39,.68c-.24,1.28-.82,3.17-2.21,5.21-1.09,1.6-5.18,6.92-12.31,8.49-3.76,.83-8.21,1.71-13.44,1.71-1.66,0-3.36-.09-5.04-.26-4.76-.5-8.99-1.42-11.32-2,.41,1.25,.6,1.74,.69,1.93,.9,1.96,3.21,6.04,5.53,7.56,1.75,1.15,3.1,1.88,4.07,2.42,1.24,.68,2.19,1.2,3,2.01,3.1,3.09,2.22,6.38,1.7,7.65-.23,.57-.54,1.11-.92,1.61-.1,1.11-.36,2.1-.77,2.93-.67,1.35-3.25,5.79-8.02,6.3-.43,.04-1,.07-1.67,.07-3.51,0-9.41-.69-14.45-2.64-7.57-2.92-13.39-7.37-18.32-14-1.21-1.77-2.1-3.13-2.79-4.24-4.44,1.78-11.86,4.65-16.58,5.88-1.14,.3-2.22,.58-3.31,.86,.41,.62,.6,1.2,.66,1.43,.51,1.84,0,4.95-3.45,6.01l-4.9,1.37c-1.91,.55-3.41,.93-4.73,1.19-6.13,1.59-10.31,2.56-12.35,2.89l-1.79,.29c-7.03,1.13-20.05,3.23-33.04,3.54-1.88,.07-3.74,.1-5.57,.1-30.95,0-52.35-8.91-58.64-11.89-4.37,1.25-15.45,4.42-20.19,5.76-6.06,1.71-15.14,4.86-16.86,5.62-2.21,.97-17.32,7.69-19.64,8.74-1.81,.81-7.84,3.42-10.66,3.72-.4,.04-.82,.07-1.25,.07Zm27.41-125.69l-.99,.11c-6.38,.68-12.88,1.48-19.3,2.38-1.69,.12-3.14,.28-4.33,.44-3.14,.41-7.15,.87-11.42,1.36l-.69,.08c-7.64,.88-16.29,1.87-22.23,2.78-2.38,.37-4.13,2.38-4.14,4.79-.02,2.41,1.69,4.46,4.06,4.87,8.78,1.51,13.88,4.86,15.03,6.62l.08,.12,20.26,76.57v.13c-.07,2.68-.97,6.03-7.12,10.57-1.6,1.18-2.32,3.18-1.85,5.11,.47,1.93,2.05,3.37,4.01,3.67,.29,.05,.58,.07,.88,.07,2.12,0,5.22-1.3,16.54-6.42,6.09-2.75,12.99-5.88,17.16-7.33,.43-.14,.85-.3,1.26-.45,10.61-3.45,22.06-6.84,34.06-10.08l.31-.09,.3,.14c4.26,1.96,8.63,3.76,12.97,5.34,12.19,4.43,27.65,6.78,44.69,6.78,13.32,0,27.2-1.38,40.42-3.97-2.97,.18-6.07,.27-9.26,.27-19.21,0-38.98-3.19-54.25-8.74-3.5-1.27-7.04-2.72-10.53-4.31l-2.39-1.09,2.56-.61c3.13-.74,6.28-1.47,9.44-2.18l.26-.06,.25,.09c15.93,5.82,32.82,8.77,50.2,8.77,21.13,0,41.44-4.36,60.35-12.95l.8-.36,.38,.79c4.26,8.7,12.21,20.43,31.96,21.78h.34c2.24,0,4.18-1.5,4.74-3.67,.16-.62,.19-1.27,.1-1.92l-.11-.75,.73-.23c.42-.13,.74-.47,.85-.89,.15-.6-.14-1.21-.7-1.47-10.16-4.69-13.74-11.76-16.22-21.65l-.22-.87,1.28-.31c2.23-.5,4.32-.97,5.15-1.1l.15-.02,.15,.03c.32,.06,1.04,.21,2.51,.58,2.77,.72,6.19,1.51,11.63,1.79,1.27,.07,2.5,.1,3.69,.1,11.52,0,18.62-3.14,21.09-9.34,.28-.7,.48-1.4,.6-2.15l.04-.21,.12-.17c.39-.54,.71-1.11,.94-1.71,1.24-3.12,0-6.52-3.91-10.7l-1.11-1.18,1.59-.31c3.08-.61,3.89-3.48,3.92-3.61l.78-2.9,.26-.19c.26-.19,.45-.46,.53-.76l1.72-6.38,.43-.16c1.15-.44,2.7-.98,4.4-1.56,2.16-.75,4.55-1.57,6.67-2.4,4.12-1.6,7.21-4.37,9.94-7.12,2.81-2.83,3.66-6.38,4.29-8.96l.1-.4c.62-2.54,.9-7.87,.61-11.64-.28-3.6-1.5-5.49-1.51-5.51l-1.12-1.71,2.02,.32,.12-.03,.43-.06c.23,0,.6,.04,.98,.08-.1-.34-.21-.73-.33-1.16-.34-1.27-1.38-3.42-2.68-5.08-1.29-1.65-3.35-2.88-3.37-2.89l-1.83-1.08,2.05-.56c.05-.01,.36-.1,.76-.16-.64-.63-1.32-1.24-1.79-1.51-1.26-.73-2.81-1.43-2.82-1.44l-2.09-.95,2.17-.73s1.11-.37,1.78-.75l.2-.13c-.25-.06-.52-.13-.82-.21-.66-.19-1.49-.51-2.44-.88-1.47-.58-3.3-1.29-5.25-1.76-2.76-.67-6.92-1.07-9.35-1.07-.24,0-.46,0-.66,.01-2.02,.08-3.49,.61-3.5,.61l-3.04,1.1,2.04-2.51s.33-.41,.48-.68l.1-.39c-1.73,.72-4.23,1.39-5.32,1.53-.27,.03-.49,.05-.69,.05-.66,0-1.08-.16-1.49-.31-.25-.1-.54-.21-.98-.29l-.83-.16c-1.65-.32-2.86-.57-3.37-.74-.48-.17-1.02-.57-1.87-1.2-.4-.3-.83-.62-1.23-.89-.7-.46-3.38-1.48-4.91-2.01l-1.35-.47,1.01-1.01s.41-.41,1-.82c.24-.17,.82-.5,1.41-.82-1.18-.44-2.85-.96-4.63-1.2-1.08-.15-2.53-.22-4.31-.22-2.61,0-5.02,.17-5.04,.17l-2.05,.14,1.65-2.06,.19-.2c-2.7-.32-7.08-.81-8.4-.81-1.89,.03-7.32,.3-9.26,.48-1.92,.18-6.1,1.1-6.78,1.41-.29,.13-.53,.31-.73,.45-.34,.24-.64,.45-1.03,.45h-.53l-.36-.52c-.06-.02-.73-.48-1.23-.82-.52-.36-1.09-.74-1.54-1.08-1.14-.86-2.94-3.23-3.18-3.93-.2-.61-.03-1.35,.22-2.27l.21-.77c.24-.88,.7-2.52,1.15-4.45,.2-.84,.35-1.55,.48-2.13,.28-1.27,.41-1.91,.64-2.31,.08-.15,.28-.44,.53-.82,.45-.68,1.14-1.71,1.4-2.26,.19-.41,.33-.8,.47-1.17,.16-.45,.33-.89,.56-1.37,.19-.39,.55-1.05,.99-1.84,.55-1,1.23-2.21,1.79-3.33,.87-1.73,1.11-3.9,1.21-6.63,.09-2.54-.41-6.2-.92-8.53-.36-1.66-.38-2.32-.41-3.3-.01-.55-.03-1.21-.12-2.24-.25-2.9,.3-4.9,.6-5.98,.27-.98,.06-2.67-.18-3.1-.52-.92-1.02-3.82-1.11-5.34-.04-.63,0-1.69,.04-2.86,.06-1.62,.12-3.62-.03-4.64-.19-1.29-1.33-2.01-2.68-2.76-1.15-.63-4.14-1.43-5.15-1.46h0c-1.07,0-2.36,.5-3.07,.97-.29,.19-.8,.6-1.39,1.06-1.73,1.36-3.01,2.35-3.77,2.6l-.56,.08c-1.03,0-2.71-.68-5.16-1.71-.75-.31-1.45-.62-2.03-.83-.48-.18-1.08-.27-1.79-.27-2,0-4.37,.72-5.15,.95-1.42,.43-3.84,2.19-4.65,2.83l-.27,.22-.35-.02s-.28-.02-.7-.02-.93,.02-1.52,.08c-1.16,.12-3.93,1.03-5.37,1.69-1.44,.65-4.61,2.44-4.64,2.45l-.34,.19-.38-.12s-4.77-1.53-6.71-2.07c-.65-.18-1.67-.28-2.89-.28-2.27,0-4.77,.34-6.71,.91-3.12,.92-4.64,5.25-4.92,6.11-.26,.81,.05,3.34,1.15,4.68,1.08,1.31,3.01,1.97,3.03,1.98l1.56,.53-1.29,1.03s-2.64,2.1-3.58,2.95c-.88,.8-3.41,3.85-4.39,5.24-1.12,1.57-2.09,3.24-2.21,3.8-.09,.41,.05,1.41,.18,1.95l.12,.52-.4,.36s-2.3,2.07-3.64,3.37c-1.3,1.26-2.77,3.41-3.65,5.34-.92,2.01-1.81,4.8-1.82,4.83l-.13,.42-.42,.15s-3.68,1.31-5.6,2.27c-1.95,.97-5.35,2.94-5.38,2.96l-.29,.17-.33-.06s-1.9-.36-3.97-.72c-1.91-.33-6.78-.73-10.77-.98-.31-.02-.63-.03-.96-.03-3.1,0-7.23,.8-9.19,1.27-.33,.08-.65,.14-.97,.18,.27,.25,.61,.53,.91,.74l1.37,.96-1.55,.61s-4.38,1.72-7.67,3.11c-3.1,1.32-4.18,2.14-4.19,2.15l-.44,.34-.51-.23s-3.81-1.81-7.23-3.14c-3.51-1.36-8.02-4.99-13.41-10.77-4.48-4.81-6.95-11.04-8.94-16.04l-.47-1.19,.35-.41c16.68-19.68,40.01-33.48,66.45-39.79-26.56,4.36-51.13,15.46-69.78,31.9l-.81,.71-.56-.92c-1.43-2.36-2.74-4.27-3.49-5.28l-.49-.65,.6-.55c23.98-21.95,58.03-34.68,93.61-35.03-3.65-.23-7.3-.34-10.93-.34-32.84,0-64.24,9.45-88.4,26.6l-.71,.5-.76-1c-.3-.38-.65-.84-1.15-1.56-.24-.35-.47-.67-.69-.93,.11,1,.2,1.8,.83,4.09l.16,.59-1.7,1.29-.81,.63-.52-.88c-.6-1.01-1.36-2.5-1.95-5.04-.21-.9-.37-1.8-.5-2.57l-.06,.1c-.51,.86-.72,1.76-1.34,5.66-.59,3.73-.54,4.68-.53,4.72l.25,4.12-1.94-3.62c-.06-.11-1.46-2.74-1.89-4.46-.9-2.32-.74-4.9-.42-6.75-1.01,1.02-1.91,2.36-2.44,3.73-.71,1.84-.36,7.48-.17,9.5l.44,4.56-2.13-4.05c-.07-.13-1.69-3.25-1.6-6.69,0-.21,.01-.49,.05-.8l-.09,.15c-.34,.58-1.51,2.77-2.34,6.57-.5,2.3-.35,4.03-.3,4.6l.03,.4-.26,.5-.27,.29h-.95l-.26-.51c-.1-.21-1.27-3.27-1.27-5.16v-.66c-.29,.43-.62,.94-.94,1.52-1.38,2.41-1.65,3.18-1.69,4.87-.03,1.46,.31,4.24,.43,5.28,.04,.34,.06,.55,.06,.58l-.13,.56c-.09,.24-.23,.61-.28,1.12-.08,.77-.05,3.43,.53,6.29l.15,.75c.43,2.17,.56,2.82,3.16,9.56,2.81,7.28,6.22,11.67,6.25,11.72l.15,.2,.03,.25c0,.05,.65,5.23,2.06,11.2l.25,1.08-1.11,.03c-2.01,.06-3.14,.09-5.26,.17l-6.66,.24,8.02,38.38Z"/><path class="cls-1" d="M372.34,147.16l-1.71-5.83s-.46-1.58-1.08-3.52c-.83-2.61-2.9-5.49-4.48-7.07-.12-.12-.25-.24-.37-.36l.98-1.11s-.6-.76-.89-1.11c-.29-.36-1.17-1.23-2.11-2.05,.32-.77,.45-1.63,.25-2.55-.4-1.87-2.01-3.18-3.9-3.23-.18-.05-.48-.15-.78-.25l-.79-.26c-.7-.22-1.44-.49-2.3-.8-1.1-.4-2.35-.85-3.93-1.36-3.2-1.04-9.85-1.48-11.85-1.55-.14-.22-.3-.42-.47-.61-1.47-1.61-3.84-1.89-5.78-.7-.67,.31-2.81,.87-3.88,1.09-.17-.06-.35-.13-.48-.17-.35-.13-.67-.25-1-.34-.34-.1-.73-.17-1.44-.29-.48-.08-1.55-.27-2.02-.4-.16-.11-.41-.28-.63-.45l4.82-1.92-8.15-3.93c-.27-.13-1.99-.94-4.3-1.61l1.79-.92-12.49-1.75c-.19-.03-4.69-.65-8.83-.99-3.89-.32-8.27,0-11.17,.22l-1.02,.07c-3.2,.22-6.67,1.35-7.76,1.73-.26-.16-.54-.34-.86-.54l-.28-.18c-.28-.27-.76-.86-1.16-1.39,.49-2.25,1.75-6.95,2.09-8.02l.16-.53,.02-.06,.26-.42c.41-.66,.68-1.1,1.25-2.16,.38-.71,.58-1.14,.76-1.57,.13-.3,.28-.64,.57-1.21,.22-.44,.5-.98,.82-1.59,.68-1.3,1.53-2.92,2.33-4.63,1.55-3.31,1.32-9.28,1.15-11.69-.09-1.23-.48-3.56-1.15-6.92-.02-.24-.03-.62-.04-1.05-.04-1.05-.09-2.36-.21-3.35-.08-.61,.2-2.65,.43-3.51,.28-1.03,.81-2.95,.04-5.58-.11-.37-.22-.73-.32-1.08-.29-.98-.55-1.82-.71-2.6-.15-.87-.05-4.38,0-5.88l.02-.83c.1-3.71-1.31-5.38-2.67-6.69-1.95-1.88-6.69-3.2-7.62-3.45-3.51-.93-5.98,.22-7.17,.78-.09,.04-.17,.08-.24,.11-.89,.39-1.8,1.1-3.34,2.33-.31,.25-.72,.58-1.09,.87-.09-.03-.18-.06-.27-.09-.43-.13-1.68-.64-2.59-1.01-1.47-.6-2.4-.97-3.03-1.15-2.86-.83-8.15,.58-8.37,.64-2.15,.59-4.38,2.02-5.76,3.03h-.11c-2.12,0-6.15,1.29-6.6,1.43-1.58,.51-3.78,1.7-5.32,2.59-.06-.02-.13-.04-.19-.06l-.39-.12c-2.04-.6-6.27-1.85-10.31-1.91-5.18-.09-8.58,1.33-11.75,4.89-3.76,4.2-3.34,8.42-2.56,11.62,.31,1.27,.93,2.33,1.69,3.21-.7,.7-1.39,1.46-2.18,2.32l-.59,.65c-2.28,2.49-4.83,7.42-4.85,7.46-.29,.58-.54,1.33-.48,2.6-.07,.05-.13,.11-.21,.16-1.96,1.55-4.37,4.83-5.31,6.17-1.09,1.54-2.13,4.21-2.8,6.1-1.46,.59-3.55,1.46-5.15,2.24-1.41,.68-2.65,1.39-3.55,1.95-.83-.16-2.01-.36-3.68-.63-5.49-.88-12.53-.89-12.82-.89-2.64,0-9.1,1.34-9.17,1.35-.19,.04-.35,.07-.47,.09l-9.2-3.53,4.27,8.07c-.87,.36-1.72,.69-2.39,.94-1.39,.52-2.69,1.18-3.69,1.74-.85-.37-2.29-1-4.39-1.91l-1.24-.54c-.31-.13-.57-.23-.82-.32-.51-.19-1.2-.44-5.46-3.98-5.75-4.78-8.97-10.25-9.82-11.81-.78-1.44-1.93-4.15-2.79-6.25,2.1-2.24,5.73-6.05,8.38-8.58,3.52-3.37,8.96-7.48,15.72-11.89,6.41-4.18,14.07-7.92,24.09-11.78,9.47-3.64,17.73-5.08,23.76-6.12,.74-.13,1.44-.25,2.12-.37,2.95-.53,12.04-.63,18.06-.7,2.09-.02,3.93-.05,5.24-.08,.72-.02,1.3-.04,1.7-.07,4.04-.27,4.26-3.56,4.27-3.93,0-.12,0-.32-.03-.59,4.59,.81,9.08,1.68,11.86,2.23,1.07,.21,1.95,.38,2.55,.5,.34,.06,.6,.11,.78,.14,2.91,.48,4.46-1.56,4.78-3.05,.08-.38,.71-3.79-3.37-4.85-.34-.09-.85-.22-1.56-.39-7.09-2-22.6-4.82-29.01-5.62-6.21-.77-14.71-1.15-23.32-1.06-8.33,.1-21.49,1.68-23.01,1.92l-.51,.08c-9.34,1.41-18.28,3.56-26.58,6.39-12.12,4.14-18.09,7.29-22.88,9.82-.52,.27-1.02,.54-1.51,.79-3.21,1.67-7.61,4.5-10.49,6.41-.9-.78-1.99-1.39-3.17-1.56-.35-1.24-.99-2.35-2.31-3.07l-.72-.39-.81-.08c-1.57-.15-2.84,.43-3.96,1.9-1.19-.79-2.69-.94-4.04-.39-1.86,.73-3.43,2.37-4.58,4.24-1.29,.37-2.25,1.27-2.91,1.99-.93,1.01-1.76,2.36-2.53,4.14l-1.8,1.08c-.41,.25-1.5,1.01-2.72,2.74-1.16,1.64-2.77,4.93-3.31,7.2-.5,2.11,0,5.78,.41,8.08-.03,.47-.07,1.29-.13,2.43v.28c-.13,2.27-.1,3.82,1.93,11.68,1.94,7.52,7.04,15.49,8.52,17.71,.1,.45,.27,1.29,.44,2.62,.13,.97,.32,2.15,.53,3.31l-13.03,.36,8.05,38.96c-13.57,1.58-51.19,5.99-54.71,6.74-6.46,1.37-7.82,8.26-7.12,11.65,.55,2.66,2.74,6.13,7.08,7.17,2.23,.53,5.2,1.49,8.63,2.6l.67,.22c1.52,.49,2.45,1.25,2.91,1.7,2.22,8.32,18.38,68.83,19.95,74.65-.24,.7-1.08,2.15-1.37,2.65-.62,1.08-2.69,2.8-3.92,3.82-.63,.52-1.17,.97-1.6,1.38-2.53,2.41-3.04,6.34-1.37,10.52,1.56,3.91,5.61,5.56,9.13,5.56,.39,0,.78-.02,1.15-.06,2.96-.32,10.08-3.51,10.38-3.65,2.32-1.05,17.43-7.76,19.65-8.74,1.75-.77,10.9-3.95,16.98-5.67,4.87-1.38,16.4-4.67,20.52-5.85,5.72,2.75,27.19,11.95,58.56,11.95,1.81,0,3.66-.03,5.54-.1,12.95-.31,25.94-2.41,32.92-3.53l1.79-.29c2.31-.37,7.13-1.54,12.32-2.88,1.24-.24,2.71-.61,4.66-1.17l4.73-1.32s.09-.03,.14-.04h.01c2.84-.88,3.26-3.4,2.85-4.91-.06-.22-.42-1.39-1.48-2.17,1.6-.4,3.13-.8,4.58-1.18l.19-.05c4.9-1.28,12.71-4.33,17.17-6.13,.73,1.2,1.72,2.73,3.05,4.68l.1,.14c4.82,6.49,10.52,10.84,17.92,13.7,6,2.32,13.19,2.78,15.7,2.51,4.32-.46,6.68-4.56,7.31-5.8,.46-.92,.65-1.95,.7-2.87,.38-.46,.71-1,.96-1.61,.56-1.37,1.11-4.06-1.5-6.68-.72-.72-1.57-1.19-2.75-1.84-1-.55-2.37-1.3-4.17-2.48-2.48-1.62-4.84-5.75-5.85-7.93-.25-.54-.69-1.87-1.16-3.38l.38-.09c2.02,.53,6.78,1.68,12.32,2.26,7.32,.76,13-.29,18.2-1.43,6.81-1.5,10.72-6.6,11.76-8.12,1.35-1.99,1.89-3.82,2.1-5.02,.12-.21,.28-.48,.47-.81,1.84-3.23,1.3-5.78,.62-9-.32-1.51-1.03-2.94-1.83-4.18,.44-.48,.86-1.05,1.33-1.71,.89-1.27,2.17-4.79,3.8-10.49,.3-.1,.62-.2,.91-.29,6.11-1.94,20.35-6.45,24.16-18.76,1.82-4.06,1.94-10.09,2.03-14.95,.03-1.33-.07-2.58-.24-3.71l2.94,.37Zm-7.94-4.88c-.33,.09-.51,.06-.51,.06,0,0,1.36,2.02,1.66,5.94,.3,3.92,0,9.32-.63,11.92-.63,2.59-1.48,6.61-4.62,9.78-3.14,3.17-6.22,5.76-10.26,7.33-3.78,1.47-8.46,2.96-11.07,3.96l-1.61,5.94c-.12,.45-.41,.92-.87,1.26l-.7,2.59h0c-.05,.19-1.01,3.55-4.61,4.26,3.32,3.54,5.72,7.56,4.09,11.65-.27,.68-.63,1.31-1.05,1.9-.13,.77-.34,1.55-.66,2.34-2.63,6.58-9.99,9.91-21.92,9.91-1.2,0-2.44-.03-3.73-.1-5.52-.29-8.99-1.09-11.81-1.82-1.43-.37-2.13-.51-2.45-.57-.8,.12-2.89,.59-5.09,1.09-.13,.03-.26,.06-.38,.09,2.21,8.81,5.39,16.29,15.72,21.05,.95,.44,1.45,1.5,1.19,2.51-.19,.74-.75,1.31-1.45,1.53,.11,.74,.08,1.51-.12,2.27-.66,2.58-2.98,4.36-5.61,4.36-.13,0-.27,0-.4-.01-18.46-1.26-27.25-11.14-32.71-22.28-18.87,8.58-39.44,13.03-60.72,13.03-17.96,0-35.01-3.16-50.51-8.82-3.16,.71-6.3,1.44-9.43,2.18,3.4,1.55,6.88,2.98,10.46,4.28,27.52,10.01,64.17,10.6,81.88,5.64,.82-.25,1.63-.49,2.44-.75-.76,.26-1.58,.51-2.44,.75-30.91,9.29-74.12,12.62-104.1,1.71-4.45-1.62-8.8-3.41-13.04-5.36-12.01,3.24-23.45,6.63-33.98,10.06-.42,.16-.85,.31-1.28,.46-4.12,1.44-11.01,4.55-17.08,7.3-11.36,5.14-14.56,6.5-16.92,6.5-.35,0-.68-.03-1.01-.08-2.31-.36-4.19-2.07-4.74-4.34-.56-2.27,.3-4.66,2.19-6.05,5.62-4.14,6.68-7.2,6.75-9.86-3.41-12.86-6.68-25.24-9.95-37.62-3.37-12.73-6.73-25.45-10.24-38.68-.81-1.24-5.36-4.68-14.42-6.23-2.8-.48-4.84-2.92-4.81-5.76,.02-2.84,2.1-5.24,4.91-5.68,5.9-.91,14.59-1.91,22.26-2.79,4.52-.52,8.8-1.01,12.09-1.43,1.2-.16,2.67-.32,4.32-.44,6.61-.92,13.06-1.71,19.33-2.39l-8.04-38.45,7.73-.27c2.12-.08,3.26-.11,5.27-.17-1.44-6.1-2.08-11.3-2.08-11.3,0,0-3.48-4.44-6.38-11.95-2.9-7.51-2.76-7.56-3.35-10.46-.59-2.9-.63-5.66-.54-6.56,.09-.91,.41-1.45,.41-1.58s-.54-3.98-.5-5.88c.04-1.9,.41-2.85,1.81-5.3,1.4-2.44,2.63-3.67,2.63-3.67v3.26c0,1.67,1.09,4.57,1.18,4.75,.09,.18-.36-1.95,.32-5.07,.68-3.12,1.68-5.52,2.44-6.83,.77-1.31,2.44-2.9,2.44-2.9,0,0-.77,2.94-.72,4.03-.09,3.24,1.49,6.25,1.49,6.25,0,0-.72-7.47,.23-9.91,.95-2.44,2.91-4.71,4.75-5.61-.47,1.35-1.48,5.36-.18,8.74,.41,1.63,1.81,4.25,1.81,4.25,0,0-.09-.91,.54-4.93,.63-4.03,.86-4.98,1.45-5.97,.59-1,.61-1.09,1.41-2.02,0,0,.27,2.38,.81,4.74,.53,2.28,1.18,3.67,1.84,4.79,.4-.31,.81-.62,1.22-.93-.71-2.58-.76-3.35-.89-4.54-.14-1.22,0-2.08,0-2.08,0,0,.95,.68,2.35,2.72,.63,.92,1.02,1.38,1.36,1.84,32.21-22.86,77.58-32.64,124.5-23.19l5.14,1.08c1.17,.21,2.35,.43,3.52,.66l-.28,.02-3.24-.68c-47.33-8.47-92.85,4.86-122.79,32.27,.86,1.15,2.19,3.12,3.54,5.35,23.86-21.03,57.97-34.2,95.85-34.2l4.53,.04c1.09-.02,2.17-.04,3.27-.04l-.24,.06-3.03-.03c-39.37,.89-74.1,17.75-95.77,43.31,2.06,5.2,4.46,11.55,9.03,16.45,5.02,5.39,9.6,9.19,13.08,10.55,3.49,1.36,7.29,3.17,7.29,3.17,0,0,1.09-.86,4.39-2.26,3.3-1.4,7.69-3.12,7.69-3.12,0,0-1.22-.86-1.58-1.49-.36-.63-.5-.86-.5-.86,0,0,.95,.18,2.44-.18,1.49-.36,6.79-1.49,10.41-1.27,3.62,.23,8.78,.63,10.86,1,2.08,.36,3.98,.72,3.98,.72,0,0,3.44-1.99,5.43-2.99,1.99-1,5.7-2.31,5.7-2.31,0,0,.91-2.85,1.86-4.93,.95-2.08,2.49-4.3,3.85-5.61,1.36-1.31,3.67-3.4,3.67-3.4,0,0-.36-1.54-.18-2.35,.18-.81,1.36-2.72,2.35-4.12,1-1.4,3.58-4.53,4.53-5.39,.95-.86,3.62-2.99,3.62-2.99,0,0-2.17-.72-3.44-2.26-1.27-1.54-1.67-4.39-1.31-5.52,.36-1.13,1.99-5.66,5.52-6.7,3.53-1.04,8.15-1.18,10.09-.63,1.95,.54,6.74,2.08,6.74,2.08,0,0,3.21-1.81,4.71-2.49,1.49-.68,4.35-1.63,5.66-1.77,1.31-.14,2.37-.06,2.37-.06,0,0,3.05-2.41,4.95-2.99,1.9-.57,5.34-1.48,7.51-.66,2.17,.81,6.16,2.78,7.15,2.44,1-.33,4.04-2.96,4.95-3.56,.91-.6,2.41-1.15,3.59-1.12,1.18,.03,4.29,.87,5.55,1.57,1.27,.69,2.87,1.6,3.14,3.41,.27,1.81-.09,6.03,0,7.57,.09,1.54,.6,4.25,1,4.95,.39,.69,.57,2.65,.3,3.65-.27,1-.85,2.93-.6,5.79,.24,2.87-.03,2.93,.51,5.43,.54,2.5,1.03,6.19,.94,8.75-.09,2.56-.3,5.01-1.3,7-1,1.99-2.35,4.28-2.78,5.16-.42,.87-.6,1.63-1.03,2.53-.42,.91-1.72,2.72-1.96,3.14-.24,.42-.45,1.75-1.03,4.19-.57,2.44-1.15,4.44-1.3,5.01-.15,.57-.45,1.54-.3,1.99,.15,.45,1.78,2.69,2.87,3.5,1.09,.81,2.87,1.9,3.02,2.17,.15,.27,.69-.39,1.51-.75,.81-.36,5.1-1.3,7.06-1.48,1.96-.18,7.39-.45,9.26-.48,1.87-.03,10.8,1.09,10.8,1.09,0,0-1.45,.94-1.81,1.39l-.36,.45s6.01-.42,9.54,.06c3.53,.48,6.61,1.99,6.61,1.99,0,0-2.47,1.3-2.99,1.66-.51,.36-.88,.72-.88,.72,0,0,4.04,1.42,5.1,2.11,1.06,.69,2.29,1.78,2.9,1.99,.6,.21,2.72,.6,4.07,.87,1.36,.27,1.48,.72,2.87,.54,1.39-.18,5.07-1.24,6.25-2.05,1.18-.81,.42-.24,.42-.24,0,0-.36,2.14-.54,2.47-.18,.33-.57,.81-.57,.81,0,0,1.57-.57,3.77-.66,2.2-.09,7.03,.3,10.26,1.09,3.23,.78,6.04,2.17,7.73,2.66,1.69,.48,2.47,.42,2.47,.42,0,0-.9,1.15-1.66,1.57-.75,.42-1.93,.81-1.93,.81,0,0,1.6,.72,2.9,1.48,1.3,.75,3.62,3.38,3.62,3.38,0,0-.94-.3-1.54-.27s-1.27,.21-1.27,.21c0,0,2.2,1.3,3.62,3.11,1.42,1.81,2.47,4.07,2.84,5.4,.36,1.33,.69,2.32,.72,2.41s-2.08-.27-2.41-.18Z"/><path class="cls-1" d="M372.34,147.16l-1.71-5.83s-.46-1.58-1.08-3.52c-.83-2.61-2.9-5.49-4.48-7.07-.12-.12-.25-.24-.37-.36l.98-1.11s-.6-.76-.89-1.11c-.29-.36-1.17-1.23-2.11-2.05,.32-.77,.45-1.63,.25-2.55-.4-1.87-2.01-3.18-3.9-3.23-.18-.05-.48-.15-.78-.25l-.79-.26c-.7-.22-1.44-.49-2.3-.8-1.1-.4-2.35-.85-3.93-1.36-3.2-1.04-9.85-1.48-11.85-1.55-.14-.22-.3-.42-.47-.61-1.47-1.61-3.84-1.89-5.78-.7-.67,.31-2.81,.87-3.88,1.09-.17-.06-.35-.13-.48-.17-.35-.13-.67-.25-1-.34-.34-.1-.73-.17-1.44-.29-.48-.08-1.55-.27-2.02-.4-.16-.11-.41-.28-.63-.45l4.82-1.92-8.15-3.93c-.27-.13-1.99-.94-4.3-1.61l1.79-.92-12.49-1.75c-.19-.03-4.69-.65-8.83-.99-3.89-.32-8.27,0-11.17,.22l-1.02,.07c-3.2,.22-6.67,1.35-7.76,1.73-.26-.16-.54-.34-.86-.54l-.28-.18c-.28-.27-.76-.86-1.16-1.39,.49-2.25,1.75-6.95,2.09-8.02l.16-.53,.02-.06,.26-.42c.41-.66,.68-1.1,1.25-2.16,.38-.71,.58-1.14,.76-1.57,.13-.3,.28-.64,.57-1.21,.22-.44,.5-.98,.82-1.59,.68-1.3,1.53-2.92,2.33-4.63,1.55-3.31,1.32-9.28,1.15-11.69-.09-1.23-.48-3.56-1.15-6.92-.02-.24-.03-.62-.04-1.05-.04-1.05-.09-2.36-.21-3.35-.08-.61,.2-2.65,.43-3.51,.28-1.03,.81-2.95,.04-5.58-.11-.37-.22-.73-.32-1.08-.29-.98-.55-1.82-.71-2.6-.15-.87-.05-4.38,0-5.88l.02-.83c.1-3.71-1.31-5.38-2.67-6.69-1.95-1.88-6.69-3.2-7.62-3.45-3.51-.93-5.98,.22-7.17,.78-.09,.04-.17,.08-.24,.11-.89,.39-1.8,1.1-3.34,2.33-.31,.25-.72,.58-1.09,.87-.09-.03-.18-.06-.27-.09-.43-.13-1.68-.64-2.59-1.01-1.47-.6-2.4-.97-3.03-1.15-2.86-.83-8.15,.58-8.37,.64-2.15,.59-4.38,2.02-5.76,3.03h-.11c-2.12,0-6.15,1.29-6.6,1.43-1.58,.51-3.78,1.7-5.32,2.59-.06-.02-.13-.04-.19-.06l-.39-.12c-2.04-.6-6.27-1.85-10.31-1.91-5.18-.09-8.58,1.33-11.75,4.89-3.76,4.2-3.34,8.42-2.56,11.62,.31,1.27,.93,2.33,1.69,3.21-.7,.7-1.39,1.46-2.18,2.32l-.59,.65c-2.28,2.49-4.83,7.42-4.85,7.46-.29,.58-.54,1.33-.48,2.6-.07,.05-.13,.11-.21,.16-1.96,1.55-4.37,4.83-5.31,6.17-1.09,1.54-2.13,4.21-2.8,6.1-1.46,.59-3.55,1.46-5.15,2.24-1.41,.68-2.65,1.39-3.55,1.95-.83-.16-2.01-.36-3.68-.63-5.49-.88-12.53-.89-12.82-.89-2.64,0-9.1,1.34-9.17,1.35-.19,.04-.35,.07-.47,.09l-9.2-3.53,4.27,8.07c-.87,.36-1.72,.69-2.39,.94-1.39,.52-2.69,1.18-3.69,1.74-.85-.37-2.29-1-4.39-1.91l-1.24-.54c-.31-.13-.57-.23-.82-.32-.51-.19-1.2-.44-5.46-3.98-5.75-4.78-8.97-10.25-9.82-11.81-.78-1.44-1.93-4.15-2.79-6.25,2.1-2.24,5.73-6.05,8.38-8.58,3.52-3.37,8.96-7.48,15.72-11.89,6.41-4.18,14.07-7.92,24.09-11.78,9.47-3.64,17.73-5.08,23.76-6.12,.74-.13,1.44-.25,2.12-.37,2.95-.53,12.04-.63,18.06-.7,2.09-.02,3.93-.05,5.24-.08,.72-.02,1.3-.04,1.7-.07,4.04-.27,4.26-3.56,4.27-3.93,0-.12,0-.32-.03-.59,4.59,.81,9.08,1.68,11.86,2.23,1.07,.21,1.95,.38,2.55,.5,.34,.06,.6,.11,.78,.14,2.91,.48,4.46-1.56,4.78-3.05,.08-.38,.71-3.79-3.37-4.85-.34-.09-.85-.22-1.56-.39-7.09-2-22.6-4.82-29.01-5.62-6.21-.77-14.71-1.15-23.32-1.06-8.33,.1-21.49,1.68-23.01,1.92l-.51,.08c-9.34,1.41-18.28,3.56-26.58,6.39-12.12,4.14-18.09,7.29-22.88,9.82-.52,.27-1.02,.54-1.51,.79-3.21,1.67-7.61,4.5-10.49,6.41-.9-.78-1.99-1.39-3.17-1.56-.35-1.24-.99-2.35-2.31-3.07l-.72-.39-.81-.08c-1.57-.15-2.84,.43-3.96,1.9-1.19-.79-2.69-.94-4.04-.39-1.86,.73-3.43,2.37-4.58,4.24-1.29,.37-2.25,1.27-2.91,1.99-.93,1.01-1.76,2.36-2.53,4.14l-1.8,1.08c-.41,.25-1.5,1.01-2.72,2.74-1.16,1.64-2.77,4.93-3.31,7.2-.5,2.11,0,5.78,.41,8.08-.03,.47-.07,1.29-.13,2.43v.28c-.13,2.27-.1,3.82,1.93,11.68,1.94,7.52,7.04,15.49,8.52,17.71,.1,.45,.27,1.29,.44,2.62,.13,.97,.32,2.15,.53,3.31l-13.03,.36,8.05,38.96c-13.57,1.58-51.19,5.99-54.71,6.74-6.46,1.37-7.82,8.26-7.12,11.65,.55,2.66,2.74,6.13,7.08,7.17,2.23,.53,5.2,1.49,8.63,2.6l.67,.22c1.52,.49,2.45,1.25,2.91,1.7,2.22,8.32,18.38,68.83,19.95,74.65-.24,.7-1.08,2.15-1.37,2.65-.62,1.08-2.69,2.8-3.92,3.82-.63,.52-1.17,.97-1.6,1.38-2.53,2.41-3.04,6.34-1.37,10.52,1.56,3.91,5.61,5.56,9.13,5.56,.39,0,.78-.02,1.15-.06,2.96-.32,10.08-3.51,10.38-3.65,2.32-1.05,17.43-7.76,19.65-8.74,1.75-.77,10.9-3.95,16.98-5.67,4.87-1.38,16.4-4.67,20.52-5.85,5.72,2.75,27.19,11.95,58.56,11.95,1.81,0,3.66-.03,5.54-.1,12.95-.31,25.94-2.41,32.92-3.53l1.79-.29c2.31-.37,7.13-1.54,12.32-2.88,1.24-.24,2.71-.61,4.66-1.17l4.73-1.32s.09-.03,.14-.04h.01c2.84-.88,3.26-3.4,2.85-4.91-.06-.22-.42-1.39-1.48-2.17,1.6-.4,3.13-.8,4.58-1.18l.19-.05c4.9-1.28,12.71-4.33,17.17-6.13,.73,1.2,1.72,2.73,3.05,4.68l.1,.14c4.82,6.49,10.52,10.84,17.92,13.7,6,2.32,13.19,2.78,15.7,2.51,4.32-.46,6.68-4.56,7.31-5.8,.46-.92,.65-1.95,.7-2.87,.38-.46,.71-1,.96-1.61,.56-1.37,1.11-4.06-1.5-6.68-.72-.72-1.57-1.19-2.75-1.84-1-.55-2.37-1.3-4.17-2.48-2.48-1.62-4.84-5.75-5.85-7.93-.25-.54-.69-1.87-1.16-3.38l.38-.09c2.02,.53,6.78,1.68,12.32,2.26,7.32,.76,13-.29,18.2-1.43,6.81-1.5,10.72-6.6,11.76-8.12,1.35-1.99,1.89-3.82,2.1-5.02,.12-.21,.28-.48,.47-.81,1.84-3.23,1.3-5.78,.62-9-.32-1.51-1.03-2.94-1.83-4.18,.44-.48,.86-1.05,1.33-1.71,.89-1.27,2.17-4.79,3.8-10.49,.3-.1,.62-.2,.91-.29,6.11-1.94,20.35-6.45,24.16-18.76,1.82-4.06,1.94-10.09,2.03-14.95,.03-1.33-.07-2.58-.24-3.71l2.94,.37Zm-7.94-4.88c-.33,.09-.51,.06-.51,.06,0,0,1.36,2.02,1.66,5.94,.3,3.92,0,9.32-.63,11.92-.63,2.59-1.48,6.61-4.62,9.78-3.14,3.17-6.22,5.76-10.26,7.33-3.78,1.47-8.46,2.96-11.07,3.96l-1.61,5.94c-.12,.45-.41,.92-.87,1.26l-.7,2.59h0c-.05,.19-1.01,3.55-4.61,4.26,3.32,3.54,5.72,7.56,4.09,11.65-.27,.68-.63,1.31-1.05,1.9-.13,.77-.34,1.55-.66,2.34-2.63,6.58-9.99,9.91-21.92,9.91-1.2,0-2.44-.03-3.73-.1-5.52-.29-8.99-1.09-11.81-1.82-1.43-.37-2.13-.51-2.45-.57-.8,.12-2.89,.59-5.09,1.09-.13,.03-.26,.06-.38,.09,2.21,8.81,5.39,16.29,15.72,21.05,.95,.44,1.45,1.5,1.19,2.51-.19,.74-.75,1.31-1.45,1.53,.11,.74,.08,1.51-.12,2.27-.66,2.58-2.98,4.36-5.61,4.36-.13,0-.27,0-.4-.01-18.46-1.26-27.25-11.14-32.71-22.28-18.87,8.58-39.44,13.03-60.72,13.03-17.96,0-35.01-3.16-50.51-8.82-3.16,.71-6.3,1.44-9.43,2.18,3.4,1.55,6.88,2.98,10.46,4.28,27.52,10.01,64.17,10.6,81.88,5.64,.82-.25,1.63-.49,2.44-.75-.76,.26-1.58,.51-2.44,.75-30.91,9.29-74.12,12.62-104.1,1.71-4.45-1.62-8.8-3.41-13.04-5.36-12.01,3.24-23.45,6.63-33.98,10.06-.42,.16-.85,.31-1.28,.46-4.12,1.44-11.01,4.55-17.08,7.3-11.36,5.14-14.56,6.5-16.92,6.5-.35,0-.68-.03-1.01-.08-2.31-.36-4.19-2.07-4.74-4.34-.56-2.27,.3-4.66,2.19-6.05,5.62-4.14,6.68-7.2,6.75-9.86-3.41-12.86-6.68-25.24-9.95-37.62-3.37-12.73-6.73-25.45-10.24-38.68-.81-1.24-5.36-4.68-14.42-6.23-2.8-.48-4.84-2.92-4.81-5.76,.02-2.84,2.1-5.24,4.91-5.68,5.9-.91,14.59-1.91,22.26-2.79,4.52-.52,8.8-1.01,12.09-1.43,1.2-.16,2.67-.32,4.32-.44,6.61-.92,13.06-1.71,19.33-2.39l-8.04-38.45,7.73-.27c2.12-.08,3.26-.11,5.27-.17-1.44-6.1-2.08-11.3-2.08-11.3,0,0-3.48-4.44-6.38-11.95-2.9-7.51-2.76-7.56-3.35-10.46-.59-2.9-.63-5.66-.54-6.56,.09-.91,.41-1.45,.41-1.58s-.54-3.98-.5-5.88c.04-1.9,.41-2.85,1.81-5.3,1.4-2.44,2.63-3.67,2.63-3.67v3.26c0,1.67,1.09,4.57,1.18,4.75,.09,.18-.36-1.95,.32-5.07,.68-3.12,1.68-5.52,2.44-6.83,.77-1.31,2.44-2.9,2.44-2.9,0,0-.77,2.94-.72,4.03-.09,3.24,1.49,6.25,1.49,6.25,0,0-.72-7.47,.23-9.91,.95-2.44,2.91-4.71,4.75-5.61-.47,1.35-1.48,5.36-.18,8.74,.41,1.63,1.81,4.25,1.81,4.25,0,0-.09-.91,.54-4.93,.63-4.03,.86-4.98,1.45-5.97,.59-1,.61-1.09,1.41-2.02,0,0,.27,2.38,.81,4.74,.53,2.28,1.18,3.67,1.84,4.79,.4-.31,.81-.62,1.22-.93-.71-2.58-.76-3.35-.89-4.54-.14-1.22,0-2.08,0-2.08,0,0,.95,.68,2.35,2.72,.63,.92,1.02,1.38,1.36,1.84,32.21-22.86,77.58-32.64,124.5-23.19l5.14,1.08c1.17,.21,2.35,.43,3.52,.66l-.28,.02-3.24-.68c-47.33-8.47-92.85,4.86-122.79,32.27,.86,1.15,2.19,3.12,3.54,5.35,23.86-21.03,57.97-34.2,95.85-34.2l4.53,.04c1.09-.02,2.17-.04,3.27-.04l-.24,.06-3.03-.03c-39.37,.89-74.1,17.75-95.77,43.31,2.06,5.2,4.46,11.55,9.03,16.45,5.02,5.39,9.6,9.19,13.08,10.55,3.49,1.36,7.29,3.17,7.29,3.17,0,0,1.09-.86,4.39-2.26,3.3-1.4,7.69-3.12,7.69-3.12,0,0-1.22-.86-1.58-1.49-.36-.63-.5-.86-.5-.86,0,0,.95,.18,2.44-.18,1.49-.36,6.79-1.49,10.41-1.27,3.62,.23,8.78,.63,10.86,1,2.08,.36,3.98,.72,3.98,.72,0,0,3.44-1.99,5.43-2.99,1.99-1,5.7-2.31,5.7-2.31,0,0,.91-2.85,1.86-4.93,.95-2.08,2.49-4.3,3.85-5.61,1.36-1.31,3.67-3.4,3.67-3.4,0,0-.36-1.54-.18-2.35,.18-.81,1.36-2.72,2.35-4.12,1-1.4,3.58-4.53,4.53-5.39,.95-.86,3.62-2.99,3.62-2.99,0,0-2.17-.72-3.44-2.26-1.27-1.54-1.67-4.39-1.31-5.52,.36-1.13,1.99-5.66,5.52-6.7,3.53-1.04,8.15-1.18,10.09-.63,1.95,.54,6.74,2.08,6.74,2.08,0,0,3.21-1.81,4.71-2.49,1.49-.68,4.35-1.63,5.66-1.77,1.31-.14,2.37-.06,2.37-.06,0,0,3.05-2.41,4.95-2.99,1.9-.57,5.34-1.48,7.51-.66,2.17,.81,6.16,2.78,7.15,2.44,1-.33,4.04-2.96,4.95-3.56,.91-.6,2.41-1.15,3.59-1.12,1.18,.03,4.29,.87,5.55,1.57,1.27,.69,2.87,1.6,3.14,3.41,.27,1.81-.09,6.03,0,7.57,.09,1.54,.6,4.25,1,4.95,.39,.69,.57,2.65,.3,3.65-.27,1-.85,2.93-.6,5.79,.24,2.87-.03,2.93,.51,5.43,.54,2.5,1.03,6.19,.94,8.75-.09,2.56-.3,5.01-1.3,7-1,1.99-2.35,4.28-2.78,5.16-.42,.87-.6,1.63-1.03,2.53-.42,.91-1.72,2.72-1.96,3.14-.24,.42-.45,1.75-1.03,4.19-.57,2.44-1.15,4.44-1.3,5.01-.15,.57-.45,1.54-.3,1.99,.15,.45,1.78,2.69,2.87,3.5,1.09,.81,2.87,1.9,3.02,2.17,.15,.27,.69-.39,1.51-.75,.81-.36,5.1-1.3,7.06-1.48,1.96-.18,7.39-.45,9.26-.48,1.87-.03,10.8,1.09,10.8,1.09,0,0-1.45,.94-1.81,1.39l-.36,.45s6.01-.42,9.54,.06c3.53,.48,6.61,1.99,6.61,1.99,0,0-2.47,1.3-2.99,1.66-.51,.36-.88,.72-.88,.72,0,0,4.04,1.42,5.1,2.11,1.06,.69,2.29,1.78,2.9,1.99,.6,.21,2.72,.6,4.07,.87,1.36,.27,1.48,.72,2.87,.54,1.39-.18,5.07-1.24,6.25-2.05,1.18-.81,.42-.24,.42-.24,0,0-.36,2.14-.54,2.47-.18,.33-.57,.81-.57,.81,0,0,1.57-.57,3.77-.66,2.2-.09,7.03,.3,10.26,1.09,3.23,.78,6.04,2.17,7.73,2.66,1.69,.48,2.47,.42,2.47,.42,0,0-.9,1.15-1.66,1.57-.75,.42-1.93,.81-1.93,.81,0,0,1.6,.72,2.9,1.48,1.3,.75,3.62,3.38,3.62,3.38,0,0-.94-.3-1.54-.27s-1.27,.21-1.27,.21c0,0,2.2,1.3,3.62,3.11,1.42,1.81,2.47,4.07,2.84,5.4,.36,1.33,.69,2.32,.72,2.41s-2.08-.27-2.41-.18Z"/><path class="cls-3" d="M111.98,66.97c.2,.49,.41,1,.61,1.52,21.67-25.57,56.4-42.42,95.77-43.31l-4.53-.04c-37.88,0-71.99,13.17-95.85,34.2,1.5,2.47,3.04,5.27,4,7.63Z"/><path class="cls-3" d="M211.63,25.14c-1.09,0-2.18,.01-3.27,.04l3.03,.03,.24-.06Z"/><path class="cls-4" d="M230.75,22.38c-1.17-.24-2.35-.45-3.52-.66l3.24,.68,.28-.02Z"/><path class="cls-3" d="M263.33,226.02c-15.75,5.51-34.64,9.58-51.7,9.58-14.22,0-27.86-2.09-40.56-5.92-5.86,1.19-11.71,2.45-17.5,3.75,15.49,5.66,32.55,8.82,50.51,8.82,21.29,0,41.85-4.46,60.72-13.03-.52-1.06-1.01-2.13-1.47-3.2Z"/><path class="cls-4" d="M236.49,245.54c.85-.24,1.67-.48,2.44-.75-.8,.25-1.62,.5-2.44,.75Z"/><path class="cls-4" d="M366.08,140.05c-.36-1.33-1.42-3.59-2.84-5.4-1.42-1.81-3.62-3.11-3.62-3.11,0,0,.66-.18,1.27-.21s1.54,.27,1.54,.27c0,0-2.32-2.63-3.62-3.38-1.3-.75-2.9-1.48-2.9-1.48,0,0,1.18-.39,1.93-.81,.75-.42,1.66-1.57,1.66-1.57,0,0-.78,.06-2.47-.42-1.69-.48-4.5-1.87-7.73-2.66-3.23-.79-8.06-1.18-10.26-1.09-2.2,.09-3.77,.66-3.77,.66,0,0,.39-.48,.57-.81,.18-.33,.54-2.47,.54-2.47,0,0,.75-.57-.42,.24-1.18,.81-4.86,1.87-6.25,2.05-1.39,.18-1.51-.27-2.87-.54-1.36-.27-3.47-.66-4.07-.87-.6-.21-1.84-1.3-2.9-1.99-1.06-.69-5.1-2.11-5.1-2.11,0,0,.36-.36,.88-.72,.51-.36,2.99-1.66,2.99-1.66,0,0-3.08-1.51-6.61-1.99-3.53-.48-9.54-.06-9.54-.06l.36-.45c.36-.45,1.81-1.39,1.81-1.39,0,0-8.93-1.12-10.8-1.09-1.87,.03-7.3,.3-9.26,.48-1.96,.18-6.25,1.12-7.06,1.48-.81,.36-1.36,1.03-1.51,.75-.15-.27-1.93-1.36-3.02-2.17-1.09-.81-2.72-3.05-2.87-3.5-.15-.45,.15-1.42,.3-1.99,.15-.57,.72-2.57,1.3-5.01,.57-2.44,.78-3.77,1.03-4.19,.24-.42,1.54-2.23,1.96-3.14,.42-.91,.6-1.66,1.03-2.53,.42-.88,1.78-3.17,2.78-5.16,1-1.99,1.21-4.44,1.3-7,.09-2.57-.39-6.25-.94-8.75-.54-2.5-.27-2.56-.51-5.43-.24-2.87,.33-4.8,.6-5.79,.27-1,.09-2.96-.3-3.65-.39-.69-.91-3.41-1-4.95-.09-1.54,.27-5.76,0-7.57-.27-1.81-1.87-2.72-3.14-3.41-1.27-.69-4.38-1.54-5.55-1.57-1.18-.03-2.69,.51-3.59,1.12-.91,.6-3.95,3.23-4.95,3.56-1,.33-4.98-1.63-7.15-2.44-2.17-.81-5.61,.09-7.51,.66-1.9,.57-4.95,2.99-4.95,2.99,0,0-1.06-.08-2.37,.06-1.31,.14-4.16,1.09-5.66,1.77-1.49,.68-4.71,2.49-4.71,2.49,0,0-4.8-1.54-6.74-2.08-1.95-.54-6.56-.41-10.09,.63-3.53,1.04-5.16,5.57-5.52,6.7-.36,1.13,.04,3.98,1.31,5.52,1.27,1.54,3.44,2.26,3.44,2.26,0,0-2.67,2.13-3.62,2.99-.95,.86-3.53,3.98-4.53,5.39-1,1.4-2.17,3.3-2.35,4.12-.18,.81,.18,2.35,.18,2.35,0,0-2.31,2.08-3.67,3.4-1.36,1.31-2.9,3.53-3.85,5.61-.95,2.08-1.86,4.93-1.86,4.93,0,0-3.71,1.31-5.7,2.31-1.99,1-5.43,2.99-5.43,2.99,0,0-1.9-.36-3.98-.72-2.08-.36-7.24-.77-10.86-1-3.62-.23-8.92,.91-10.41,1.27-1.49,.36-2.44,.18-2.44,.18,0,0,.14,.23,.5,.86,.36,.63,1.58,1.49,1.58,1.49,0,0-4.39,1.72-7.69,3.12-3.3,1.4-4.39,2.26-4.39,2.26,0,0-3.8-1.81-7.29-3.17-3.48-1.36-8.06-5.16-13.08-10.55-4.57-4.9-6.96-11.25-9.03-16.45-.21-.52-.41-1.03-.61-1.52-.96-2.36-2.5-5.15-4-7.63-1.36-2.23-2.68-4.2-3.54-5.35,29.94-27.41,75.46-40.74,122.79-32.27l-5.14-1.08c-46.91-9.45-92.29,.33-124.5,23.19-.35-.46-.73-.92-1.36-1.84-1.4-2.04-2.35-2.72-2.35-2.72,0,0-.14,.86,0,2.08,.13,1.19,.18,1.95,.89,4.54-.41,.31-.82,.62-1.22,.93-.66-1.11-1.31-2.5-1.84-4.79-.54-2.35-.81-4.74-.81-4.74-.79,.93-.82,1.02-1.41,2.02-.59,1-.81,1.95-1.45,5.97-.63,4.03-.54,4.93-.54,4.93,0,0-1.4-2.63-1.81-4.25-1.3-3.37-.29-7.38,.18-8.74-1.84,.9-3.8,3.17-4.75,5.61-.95,2.44-.23,9.91-.23,9.91,0,0-1.58-3-1.49-6.25-.04-1.09,.72-4.03,.72-4.03,0,0-1.67,1.58-2.44,2.9-.77,1.31-1.76,3.71-2.44,6.83-.68,3.12-.23,5.25-.32,5.07-.09-.18-1.18-3.08-1.18-4.75v-3.26s-1.22,1.22-2.63,3.67c-1.4,2.44-1.77,3.4-1.81,5.3-.05,1.9,.5,5.75,.5,5.88s-.32,.68-.41,1.58c-.09,.91-.05,3.67,.54,6.56,.59,2.9,.45,2.94,3.35,10.46,2.9,7.51,6.38,11.95,6.38,11.95,0,0,.64,5.2,2.08,11.3-2.01,.06-3.14,.09-5.27,.17l-7.73,.27,8.04,38.45c-6.27,.67-12.72,1.46-19.33,2.39-1.65,.11-3.12,.27-4.32,.44-3.3,.42-7.57,.91-12.09,1.43-7.67,.88-16.36,1.88-22.26,2.79-2.81,.43-4.89,2.84-4.91,5.68-.02,2.84,2.01,5.28,4.81,5.76,9.06,1.56,13.61,4.99,14.42,6.23,3.5,13.23,6.87,25.95,10.24,38.68,3.27,12.38,6.55,24.76,9.95,37.62-.07,2.66-1.13,5.72-6.75,9.86-1.88,1.39-2.75,3.77-2.19,6.05,.56,2.27,2.43,3.99,4.74,4.34,.34,.05,.66,.08,1.01,.08,2.35,0,5.55-1.36,16.92-6.5,6.08-2.75,12.97-5.86,17.08-7.3,.43-.15,.86-.3,1.28-.46,10.53-3.43,21.97-6.82,33.98-10.06,4.24,1.95,8.59,3.75,13.04,5.36,29.98,10.9,73.19,7.58,104.1-1.71-17.72,4.96-54.37,4.36-81.88-5.64-3.58-1.3-7.07-2.74-10.46-4.28,3.12-.74,6.27-1.47,9.43-2.18,5.8-1.31,11.64-2.56,17.5-3.75,.5-.1,1-.2,1.49-.3,3.13-.56,6.25-1.09,9.34-1.59,.82-.13,1.55-.36,2.2-.65,1.59-.3,3.19-.59,4.78-.88,25.12,6.09,52.34,1.22,72.37-5.42,.64,1.72,1.32,3.46,2.07,5.18,.46,1.07,.95,2.14,1.47,3.2,5.46,11.14,14.25,21.02,32.71,22.28,.13,0,.27,.01,.4,.01,2.63,0,4.95-1.78,5.61-4.36,.19-.76,.22-1.53,.12-2.27,.7-.22,1.26-.79,1.45-1.53,.26-1.02-.24-2.07-1.19-2.51-10.33-4.77-13.51-12.24-15.72-21.05,.13-.03,.25-.06,.38-.09,2.2-.49,4.28-.96,5.09-1.09,.32,.06,1.02,.2,2.45,.57,2.82,.73,6.29,1.53,11.81,1.82,1.29,.07,2.53,.1,3.73,.1,11.93,0,19.3-3.32,21.92-9.91,.32-.79,.53-1.57,.66-2.34,.43-.59,.78-1.22,1.05-1.9,1.63-4.09-.77-8.11-4.09-11.65,3.6-.71,4.56-4.07,4.61-4.25h0l.7-2.59c.47-.34,.75-.8,.87-1.26l1.61-5.94c2.61-1,7.29-2.49,11.07-3.96,4.04-1.57,7.12-4.16,10.26-7.33,3.14-3.17,3.98-7.18,4.62-9.78,.63-2.59,.93-8,.63-11.92-.3-3.92-1.66-5.94-1.66-5.94,0,0,.18,.03,.51-.06s2.44,.27,2.41,.18-.36-1.09-.72-2.41Zm-89-64.12c-.94,4.07-1.72,5.76-2.82,6.93-1.1,1.17-1.61,1.33-1.84,2.11-.23,.78-.27,3.13-1.92,4.89-1.64,1.76-4.42,4.03-6.93,4.89-2.51,.86-5.36,1.33-5.36,1.33,0,0,5.33-1.96,7.13-3.25,1.8-1.29,4.31-3.76,4.74-5.33,.43-1.57,.63-3.09,.82-3.44,.2-.35,1.09-.98,1.68-1.8,.59-.82,2.35-3.25,2.11-5.56-.23-2.31-1.45-5.44-1.45-5.44,0,0,.98,.74,1.37,1.29,.39,.55,1.21,2.27,1.21,2.27,0,0,.31-1.02,.16-2.58-.16-1.57-.47-3.37-.31-5.05,.16-1.68,.98-3.84,.98-3.84,0,0-.43,2.39-.12,4.5,.31,2.11,1.49,3.99,.55,8.07ZM77,59.13c.47-1.53,1.92-2.45,3.23-2.05,1.32,.4,2.01,1.97,1.54,3.5-.47,1.53-1.92,2.45-3.23,2.05-1.32-.4-2.01-1.97-1.54-3.5Zm23.74,.7c2.11,2.08,.94,8.1-3.45,9.87-3.05,1.21-4.5,1.02-5.68,2.31-1.17,1.29-2.58,4.19-4.93,5.48-2.35,1.29-6.07,1.72-8.14-.98-2.07-2.7-2.39-6.34-.94-8.69,4.31-8.73,19.73-11.67,23.14-7.99Zm-6.23-6.96c.92,1.31,.74,3.02-.39,3.81-1.13,.79-2.79,.36-3.71-.95-.92-1.32-.75-3.02,.38-3.81,1.13-.79,2.79-.36,3.71,.95Zm3.22,3.43c-1.14-1.04-1.41-2.6-.61-3.49,.81-.89,2.39-.78,3.54,.26,1.14,1.04,1.42,2.6,.61,3.49-.81,.89-2.39,.78-3.54-.26Zm225.65,93.78c-1.52,1.06-5.52,.1-8.58,.55s-5.17,1-6.67,1.71c-1.51,.7-3.01,1.05-3.01,1.05,0,0,6.48-8.87,16.41-7.28,2.29,.3,3.77,2.48,1.86,3.96Zm-192-34.69c.89,.86,1.61,2.1,2.17,3.65,.53,1.44,1,3.55,1.38,6.31,.53,3.87,.34,6.61-.53,8.26-.87,1.64-2.58,2.5-5.15,2.56-2.7,.07-4.73-.77-6.13-2.53-1.37-1.73-2.43-4.86-3.14-9.38-.64-4.02-.54-6.88,.32-8.53,.87-1.66,2.68-2.46,5.4-2.39,2.43,.06,4.33,.75,5.67,2.05Zm30.58,11.32c-.26-1.29-.45-2.51-.56-3.65-.28-3.07-.43-4.61-.71-7.68,1.55,.12,2.33,.18,3.88,.31,.59,6.79,1.18,13.58,1.76,20.38-1.4-.05-2.09-.07-3.49-.11-2.01-3.75-3.03-5.64-5.1-9.45-.48-.89-.93-1.8-1.38-2.73-.44-.94-.92-1.94-1.26-2.94-.04-.12-.09-.28-.17-.47-.07-.18-.26-.63-.26-.63,0,0,.11,.44,.15,.61s.08,.31,.1,.43c.17,.85,.25,1.28,.42,2.13,.19,1.04,.29,1.56,.48,2.59,.03,.14,.06,.32,.08,.53,.03,.21,.05,.44,.08,.7,.45,3.64,.68,5.46,1.13,9.1-1.48-.03-2.22-.04-3.7-.06-.76-7.02-1.52-14.03-2.27-21.04,1.45,.09,2.17,.14,3.62,.24,1.89,3.43,2.82,5.14,4.65,8.52,1.33,2.39,3.6,7.57,3.6,7.57,0,0-.81-3.05-1.07-4.34Zm78.81,14.34c-.03,.74-.05,1.12-.08,1.86-3.87-.59-5.81-.86-9.69-1.39,.18-6.75,.28-10.12,.46-16.87,1.52,.28,2.28,.43,3.79,.72-.2,5.9-.3,8.86-.51,14.76,2.41,.36,3.62,.54,6.03,.92Zm6.79-13.19c-.33,5.66-.49,8.49-.81,14.16,2.4,.4,3.61,.61,6.01,1.03-.05,.71-.07,1.07-.12,1.78-3.86-.66-5.79-.97-9.66-1.57,.33-6.48,.49-9.71,.81-16.19,1.51,.31,2.27,.47,3.77,.79Zm-151.17-12.76c1.33,1,2.2,2.62,2.62,4.85,.6,3.14-.15,5.25-2.17,6.23-1.01,.48-2.6,.77-4.71,.88,.86,4.25,1.3,6.38,2.16,10.63-1.5,.12-2.25,.18-3.75,.3-1.68-8.05-3.36-16.09-5.04-24.14,2.07-.07,3.1-.11,5.17-.16,2.49-.07,4.4,.41,5.72,1.4Zm114.18,8.47c-.98-.45-1.8-.72-2.46-.81-.9-.13-1.68-.1-2.32,.1-.64,.2-1.17,.57-1.58,1.11-.41,.55-.7,1.27-.88,2.17-.18,.9-.25,1.98-.22,3.25,.1,4.54,1.91,6.98,5.4,7.35,.61,.06,1.34,.02,2.19-.14,0,.89,.01,1.34,.02,2.23-.89,.23-1.88,.3-2.98,.19-5.56-.54-8.45-3.84-8.63-10-.1-3.33,.52-5.72,1.88-7.15,1.36-1.43,3.5-1.92,6.39-1.49,1.07,.16,2.13,.5,3.17,1.01,0,.87,.01,1.31,.02,2.18Zm-113.27,45.54c1.99,9.98-10.76,24.07-10.76,24.07,.11,.47,17.25,7.98,18.97,17.82,2.55,14.62-3.52,28.11-18.22,33.03-9.3,3.23-18.51,6.71-27.63,10.43-.2,.08-.39,.12-.55,.12-.39,0-.64-.21-.72-.49-.11-.4,.69-1.02,.89-1.69,1.67-2.39,2.52-3.57,4.23-5.9,.99-1.39,1.04-2.7,.62-4.28-6.9-26.05-13.8-52.1-20.7-78.15l11.46-5.95-24.06-2.56c-.08-.39,.24-.84,1.08-.98,8.98-1.52,17.98-2.87,27.01-4.03,2.55-.35,5.25-.55,7.98-.55,13.3,0,27.52,4.66,30.39,19.12Zm168.56-35.35c-2.47-.59-3.71-.87-6.19-1.44-.16,1.94-.24,2.91-.39,4.84,2.18,.46,3.27,.69,5.45,1.17-.06,.68-.1,1.02-.16,1.71-2.17-.46-3.26-.69-5.43-1.14-.17,2.09-.26,3.13-.43,5.22,2.43,.45,3.64,.69,6.07,1.16-.06,.68-.1,1.02-.16,1.7-3.87-.74-5.82-1.09-9.7-1.77,.46-6.2,.69-9.3,1.15-15.5,3.99,.9,5.98,1.37,9.96,2.34-.06,.68-.09,1.02-.16,1.7Zm-45.59-11.33c2.37,.4,4.13,1.21,5.25,2.39,.74,.79,1.26,1.84,1.58,3.09,.3,1.17,.45,2.84,.41,5-.06,3.01-.65,5.07-1.75,6.21-1.1,1.13-2.91,1.55-5.44,1.25-2.66-.31-4.54-1.23-5.63-2.77-1.08-1.51-1.65-4.06-1.67-7.63-.02-3.18,.51-5.35,1.61-6.49,1.1-1.15,2.99-1.5,5.65-1.05Zm-45.93,13.95c-1.49-.07-2.24-.1-3.73-.16-.53-6.72-1.07-13.43-1.6-20.15,1.55,.14,2.32,.21,3.87,.36,.49,6.65,.97,13.3,1.46,19.95Zm-26.76-21.87c.11,.97,.17,1.45,.28,2.42-2.57-.13-3.85-.19-6.43-.3,.34,2.73,.51,4.09,.84,6.82,2.25,.06,3.38,.09,5.63,.17,.11,.97,.17,1.45,.28,2.42-2.24-.07-3.36-.1-5.6-.14,.36,2.94,.55,4.41,.91,7.35,2.49,.01,3.74,.02,6.23,.06,.11,.97,.17,1.45,.28,2.42-3.97-.03-5.96-.03-9.94,0-.94-7.24-1.88-14.48-2.82-21.72,4.14,.17,6.22,.27,10.35,.51Zm-29.43,21.75c-1.5,.06-2.25,.1-3.74,.17-.78-4.55-1.17-6.83-1.95-11.38-2.25,.05-3.37,.08-5.61,.15,.83,4.6,1.24,6.91,2.07,11.51-1.5,.08-2.25,.13-3.75,.22-1.45-7.81-2.9-15.63-4.36-23.44,1.57-.02,2.35-.03,3.92-.04,.65,3.64,.98,5.46,1.64,9.1,2.26-.06,3.39-.08,5.64-.12-.62-3.6-.92-5.4-1.54-9,1.57,0,2.35,0,3.91,.02,1.26,7.6,2.51,15.21,3.77,22.81Zm209.4,24.36c-1.31,.25-3.2-.63-10.19,1.05-.1-.15,3.91-3.66,6.37-4.52,2.46-.85,3.41-.8,4.37-.5,1.91,1.03,1.8,3.63-.55,3.96Zm-2.31-5.42c-1.15,.75-4.52,.75-7.08,1.3-2.56,.55-5.02,1.4-6.32,1.81-1.3,.4-2.21,.65-2.21,.65,0,0,2.81-3.26,6.12-4.82,3.31-1.56,4.97-2.36,7.03-2.51,2.06-.15,2.76,.2,3.26,1.05,.5,.85,.35,1.76-.8,2.51Zm-28.92-14.99c-.1,.6-.15,.9-.24,1.5-2.43-.7-3.65-1.05-6.09-1.73-.25,1.71-.37,2.57-.62,4.29,2.15,.56,3.22,.85,5.37,1.43-.1,.6-.14,.9-.24,1.51-2.14-.57-3.21-.84-5.36-1.39-.27,1.85-.41,2.77-.68,4.62,2.4,.57,3.6,.86,6,1.45-.1,.6-.14,.9-.24,1.5-3.83-.92-5.75-1.37-9.59-2.24,.76-5.5,1.13-8.25,1.89-13.75,3.93,1.09,5.9,1.66,9.81,2.81Zm-16.14-4.04c.96,.72,1.67,1.67,2.1,2.84-1.42-.07-2.12-.1-3.53-.15-.11-.41-.24-.77-.4-1.07-.16-.3-.34-.56-.55-.76-.42-.4-1.08-.72-1.98-.95-1.24-.31-2.14-.12-2.67,.56-.54,.72-.93,2.19-1.17,4.37-.24,2.21-.17,3.75,.2,4.62,.37,.87,1.19,1.44,2.44,1.71,1.16,.25,2.01,.15,2.53-.29,.55-.46,.9-1.34,1.06-2.61,.02-.15,.03-.23,.05-.38,.01-.11,.02-.17,.03-.29-1.27-.3-1.91-.45-3.19-.74,.08-.66,.11-.98,.19-1.64,2.67,.63,4.01,.95,6.67,1.61-.03,.22-.04,.32-.07,.54-.35,2.72-1.07,4.44-2.09,5.2-1.03,.76-2.79,.91-5.27,.4-2.57-.53-4.35-1.46-5.32-2.82-.97-1.36-1.32-3.41-1.05-6.12,.31-3.1,1.12-5.02,2.44-5.74,1.24-.67,3.06-.7,5.43-.08,1.81,.47,3.2,1.07,4.15,1.79Zm-98.86-15.13c.86,1.57,1.57,3.4,1.57,3.4,.01,0,.24-.82,.38-1.2,.14-.39,.29-.77,.46-1.16,.09-.22,.14-.32,.23-.54,.64-1.52,.96-2.28,1.61-3.79,1.56,.18,2.33,.27,3.89,.46-1.94,3.51-2.9,5.29-4.78,8.93,2.3,4.12,3.43,6.15,5.65,10.18-1.5-.11-2.25-.16-3.75-.25-.81-1.52-1.21-2.28-2.03-3.81-.41-.76-.75-1.45-1.01-2.05-.26-.61-.58-1.6-.58-1.6-.01,0-.2,1.08-.4,1.58-.22,.54-.33,.81-.55,1.34-.11,.29-.17,.43-.28,.71-.56,1.38-.83,2.07-1.38,3.46-1.58-.09-2.36-.13-3.94-.21,1.81-3.93,2.74-5.86,4.62-9.66-2.23-4.02-3.37-6.05-5.67-10.16,1.5,.15,2.25,.23,3.75,.38,.89,1.6,1.33,2.4,2.21,3.99Zm71.16,63.36c-1.37-.07-2.06-.11-3.44-.17-.53,7.53-1.06,15.06-1.59,22.58-.07,.96,.27,1.66,1.59,2.15,2.26,.82,3.38,1.23,5.62,2.03,.37,.22,1.31,.41,1.29,.64-.02,.23-.43,.48-1.2,.51-10.06,.52-20.11,1.15-30.14,2.11h0c-.87,.1-2.06,.21-3.23,.33-8.2,.82-16.38,1.8-24.54,2.97-.19,.03-.36,.04-.51,.04-.58,0-.83-.19-.84-.42,0-.29,.74-.68,1.3-1.04,2.02-1.3,3.04-1.94,5.08-3.2,.76-.46,1.13-1.16,.92-1.97-1.22-3.77-1.83-5.67-3.09-9.51-.18-.4-.68-.71-1.49-.71-.09,0-.19,0-.29,.01-5.79,.49-8.68,.77-14.45,1.39-.58,.06-.96,.4-1.13,.82-.93,4.47-1.39,6.73-2.27,11.28-.15,.73,.27,1.26,1.05,1.64,1.72,.65,2.58,.98,4.29,1.62,.78,.37,1.93,.58,1.94,.88,.01,.29-.35,.64-1.29,.8-7.21,1.16-14.4,2.45-21.57,3.88-.62,.12-3.11,.79-3.93,.82-1.42,.31-3.11,.67-4.15,.88-14.24,3.13-28.32,6.68-42.36,10.68-.19,.05-.35,.08-.5,.08-.42,0-.67-.2-.72-.47-.06-.36,.8-.86,1.08-1.44,1.94-2,2.92-2.99,4.9-4.94,1.15-1.16,1.35-2.3,1.12-3.7-3.9-23.52-7.8-47.04-11.7-70.56-.23-1.4-.83-2.41-2.48-3.12-2.81-1.17-4.22-1.76-7.06-2.94-.5-.32-1.64-.6-1.71-.95-.06-.36,.3-.75,1.17-.81,17.51-1.13,34.99-1.7,52.54-1.7,1.22,0,2.44,0,3.67,0,.87,0,1.77,.44,1.82,.96,.79,8.67,1.57,17.35,2.36,26.02-2.08-3.63-5.14-17.55-21.94-21.47-4.9,.14-7.35,.23-12.25,.46,1.54,10.98,3.09,21.97,4.63,32.95,1.78-.22,2.66-.33,4.44-.54,7.85-2.19,8.85-10.12,9.47-10.16,.06,0,.12,0,.17,0,.49,0,.69,.2,.73,.59,.88,7.66,1.76,15.32,2.63,22.97,.04,.32-.14,.57-.72,.65h-.02c-.8,0-2.96-6.46-11.47-8.15-1.76,.23-2.63,.35-4.39,.6,1.6,11.4,3.21,22.79,4.81,34.19,4.24-1,6.37-1.48,10.63-2.4,2.43-.52,13.27-4.58,15.48-25.45,.71,7.89,1.43,15.78,2.14,23.68l-.05,.03,.21,2.35c.7-.36,1.3-.69,1.5-.84,2-1.57,3-2.34,5.03-3.86,1.08-.81,1.2-1.86,1.32-2.81,3.99-22.82,8.75-45.4,14.47-67.85,.18-.44,.55-.78,1.45-.78,.07,0,.15,0,.24,0,3.2,.19,4.79,.29,7.99,.52,1.08,.08,1.74,.6,1.97,1.17,6.88,20.34,13.5,40.75,19.84,61.27,.16,.73,.59,1.49,1.51,1.96h0s.1,.04,.27,.12c.1,.04,.2,.08,.31,.12,1.22,.39,2.11,.68,3.02,.97,.04,0,.07,.01,.11,.02,1.93,.3,2.27,.49,3.51,.1,.96-.31,2.8-1.17,3.58-1.55,.46-.23,.96-.47,1.53-.75,1.37-.69,1.79-1.47,1.83-2.48,.64-15.85,1.28-31.69,1.92-47.54l10.29-3.79-19.78-6.33,.19,.23c-.12-.08-.19-.16-.19-.23,0-.21,.3-.4,.89-.4,.12,0,.26,0,.41,.03,8.93,1.05,17.84,2.27,26.73,3.67,9.32,1.4,33.6,5.68,31.68,19.04-1.08,7.51-14.72,10.92-16.75,10.92,24.82,19.95,9.24,47.78,35.09,59.71-38.77-2.65-27.17-48.38-50.5-58.42Zm80.77,21.76c-2.08,5.21-10.31,6.25-16.67,6.25-1.18,0-2.3-.04-3.3-.09-5.25-.27-8.43-1.06-10.66-1.64-2.04-.53-3.19-.75-3.77-.77-.03,0-.06,0-.09,0-.81,0-2.48,.37-6.4,1.25-.8,.18-1.6,.42-2.36,.42h-.04c-.78-.01-.95-.14-.92-.34,1.1-6.71,1.66-10.06,2.76-16.77,.03-.18,.22-.39,.8-.39,.08,0,.17,0,.27,.01,.6,.06,1,.37,1.12,.58,3.93,6.56,9.71,14.15,18.78,14.64,.25,.01,.49,.02,.73,.02,3.29,0,5.59-1.23,5.66-2.62,.3-6.3-8.75-12.64-13.92-17.63-5.1-4.93-13.44-12.17-12.12-19.61,.75-4.22,5.03-5.45,9.69-5.45,4.02,0,8.32,.91,10.92,1.63,3.87,1.06,8.44,3.01,11.35,4.42,.96,.46,2.2,.96,3.02,1.18,.83,.22,3.02,.36,4.98,.41,1.95,.05,3.29,.17,4.52,.54,1.03,.3,1.37,.7,1.28,1.02-1.45,5.38-2.18,8.06-3.63,13.44-.02,.08-.15,.13-.38,.13-.21,0-.52-.04-.91-.13-.61-.13-.98-.39-1.11-.65-3.78-7.53-11.42-15.1-19.76-17.28-1.39-.36-2.47-.51-3.31-.51-2.23,0-2.77,1.07-2.87,2.17-.63,6.89,9.68,14.45,14.5,18.99,3.99,3.77,14.19,10.85,11.82,16.79Zm-11.67-62.4c-1.77,1.42-8.09-1.3-20.47,4.37,1.16-1.71,3.81-5.62,9.13-7.38,5.32-1.76,8.68-1.91,9.84-1.5,2.15,.15,3.39,2.92,1.5,4.52Zm-4.26-10.69c1.1,.65,1.56,1.3,1.51,2.46-.05,1.15-.3,1.3-.9,1.51-.6,.2-7.73,0-11.79,1.66-4.06,1.66-6.77,3.31-6.77,3.31,0,0,7.59-12.24,17.97-8.93Zm-43.6-91.2c-.3-1.05,1.03-1.75,1.03-1.75,0,0-.09,.44-.21,.84-.12,.4-.07,.75,.07,1.33,.14,.59,.87,1.17,.87,1.17,0,0-.35,.02-.54-.09-.19-.12-.91-.44-1.22-1.5Zm-3.88-3.3c.61-.47,1.01-1.5,1.01-1.5,0,0,.47,1.78-.94,2.46-1.4,.68-2.9-.05-2.9-.05,0,0,1.58,.05,2.83-.91ZM122.94,91.61c4.62,4.25,7.81,6.83,12.7,9.41,4.89,2.58,8.24,3.71,8.24,3.71,0,0,2.94-2.65,5.75-4.55,2.81-1.9,10.07-5.59,10.07-5.59,0,0-1.52-.7-2.01-1.13-.5-.43-.34-.39-.34-.39,0,0,.7,.32,1.63,.05,.93-.27,3.89-.95,9.12-.54,5.23,.41,13.37,1.7,13.37,1.7,0,0,2.11-2.17,4.19-3.42,2.08-1.24,8.76-4.03,8.76-4.03,0,0,1.27-4.19,2.65-6.11,1.38-1.92,2.9-3.94,4.21-5.14,1.31-1.2,1.81-2.35,2.01-3.08s-.25-.79,.27-2.04c.52-1.24,1.68-3.4,3.26-5.09,1.58-1.7,4.87-5.11,7.29-6.99,2.42-1.88,7.85-6,10.73-7.88,2.87-1.88,5.66-4.14,8.22-5.23,2.56-1.09,3.85-1.81,5.82-2.24,1.97-.43,3.24-.52,3.24-.52,0,0,1.24-.07,1.74-.61,.5-.54,1.15-1.74,1.9-2.22,.75-.48,2.51-1.27,4.5-.97,1.99,.29,5.45,1.95,5.45,1.95,0,0-.5,.39-1.11,1.11-.61,.72-1.29,1.67-1.29,1.67,0,0-.7-1.56-1.34-2.58-.63-1.02-.86-1.92-2.85-1.36-1.99,.57-3.83,2.49-3.83,2.49,0,0,2.38-1.38,3.21-1.38s1.38,.09,1.79,.77c.41,.68,.75,1.47,.77,1.56,.02,.09-.09-.25-1.04-.48-.95-.23-2.49-.18-2.49-.18,0,0,.41,.2,.5,.63,.09,.43,.57,1.74,1.29,2.53,.72,.79,2.33,1.11,2.33,1.11,0,0-.7,.77-1.18,1.72-.48,.95-.95,3.1-.95,3.1,0,0,1.29-2.53,1.7-3.1,.41-.57,2.49-3.06,3.76-4.21,1.27-1.15,3.35-2.6,4.53-3.21,1.18-.61,3.37-1.56,3.37-1.56,0,0,.18,1.81,1.15,2.56,.97,.75,2.92,1.43,4.37,1.4,1.45-.02,2.63-.41,2.63-.41,0,0,.16,1.18,1,2.08,.84,.91,1.72,1.63,2.53,1.72,.81,.09,1.54,.14,1.54,.14,0,0,0,3.08,.18,4.12,.18,1.04,.29,2.38-.29,3.87-.59,1.49-2.99,6.72-4.05,9.12-1.06,2.4-2.72,6.65-3.33,8.74-.61,2.08-.75,3.58-.95,5.73-.2,2.15,.02,5.21,0,6.45-.02,1.24-.16,1.88-1.13,2.87-.97,1-2.83,2.85-5.48,3.3s-5.7,.59-8.64-.16c-2.94-.75-7.04-2.33-8.87-4.37-1.83-2.04-3.6-3.96-4.91-7.69-1.31-3.73-1.61-5.14-1.58-7.08,.02-1.95,.29-4.37,1.81-6.88,1.52-2.51,2.35-3.6,3.1-4.32,.75-.72,.91-1.15,.91-1.15,0,0-4.19,.07-6.68,1.11-2.49,1.04-4.41,1.92-6.68,3.62-2.26,1.7-2.76,3.24-2.76,3.24,0,0,1.45-.54,2.47-.77,1.02-.23,1.43-.16,1.43-.16,0,0-2.17,1.99-3.28,4.01s-1.36,3.21-1.4,3.76c-.05,.54-.05,.7-.05,.7,0,0,.38-.41,1.77-1.04,1.38-.63,2.31-.79,2.31-.79,0,0-1.02,1.11-2.15,3.87-1.13,2.76-.97,5.02-.97,5.02,0,0,1.02-1.11,1.56-1.58,.54-.48,1.11-.72,1.11-.72,0,0-.59,1.76-.5,4.44,.09,2.67,.11,2.62,.52,4.8,.41,2.17,.88,3.51,.88,3.51,0,0-6.2-5.95-5.27-12.49,.36-1.47,.66-2.44,.66-2.44,0,0-.63,.14-1.49,.61-.86,.48-1.09,.7-1.09,.7,0,0,.09-2.31,.77-4.3,.68-1.99,1.02-3.08,1.02-3.08,0,0-1.27,.43-1.86,.86-.59,.43-1.4,1.27-1.4,1.27,0,0,.11-3.28,1.04-5.41,.93-2.13,1.49-2.81,1.49-2.81,0,0-12.74,3.03-11.56,17.11,.97-1.27,2.83-1.74,2.83-1.74,0,0-.59,2.06-.75,4.21-.16,2.15,.91,5.68,.91,5.68,0,0,.66-1.4,1.13-2.01,.48-.61,1.22-.93,1.22-.93,0,0-1.11,2.15-1.02,4.59,.09,2.44,.32,4.87,.79,6.72,.48,1.86,.54,2.04,.54,2.04,0,0-5.21-4.62-7.2-8.03-1.99-3.42-2.56-4.53-3.08-6.18-.52-1.65-.93-3.44-.93-3.44,0,0-3.53,1.56-5.23,3.73-1.7,2.17-2.53,3.51-3.15,5.45-.61,1.95-.61,6.07-.61,6.07,0,0-.48,.02-3.15,1.45-2.67,1.43-8.26,4.21-13.37,8.6-.48,.41-.95,.84-1.4,1.26l-2.04-.21c-.49-.05-.9-.09-1.28-.13v-.02l-.3-.03c2.03-3.23,4.57-6.45,4.57-6.45,0,0-3.17-1.06-8.87-.29-5.7,.77-11.11,3.46-14.1,5-.07,.03-.13,.07-.2,.1l-3.32-.25c1.25-1.36,3.4-3.15,3.4-3.15,0,0-5.79,.27-9.55,1.65-.75,.27-1.52,.6-2.28,.95l-.49-.03-5.68-.35v.04c-2.38-.12-4.41-.22-7.42-.34l-2.25-.09-.03-.02c-5-3.01-9.6-7.67-10.75-9.35-1.15-1.68-3.4-5-3.4-5,0,0,1.56,1.36,4.32,2.94,2.76,1.58,3.19,1.79,3.19,1.79,0,0-2.49-2.85-5.02-6.77-2.53-3.92-4.87-9.8-4.87-9.8,0,0,4.41,7.35,9.03,11.61Zm-34.42-36.42c.56,1.5-.23,3.18-1.77,3.76-1.54,.57-3.24-.18-3.79-1.68-.56-1.5,.23-3.18,1.77-3.76,1.54-.57,3.24,.18,3.8,1.68Zm-15.72,8.67c.35-1.5,1.59-2.5,2.76-2.22,1.17,.27,1.84,1.72,1.49,3.22-.35,1.5-1.59,2.5-2.76,2.22-1.17-.27-1.84-1.72-1.49-3.22Zm287.27,75.4l-.68-.03s.33,1.79,.6,2.55c.27,.76,1.9,4.58,1.65,9.4-.24,4.82,.43,5.39-1.52,9.51-1.95,4.12-5.83,9.13-10.24,11.6-4.42,2.47-7.7,3.93-9.51,4.5-.07,.02-.14,.04-.21,.06l.27-1c1.28-.66,2.58-1.41,3.46-2.13,2.44-1.98,5.39-5.69,5.39-5.69,0,0-2.03,1.38-4.09,2.33-1.49,.68-3.5,1.16-4.52,1.37-.06-.1-.13-.2-.22-.3,.6-.61,1.73-1.76,2.56-2.69,1.19-1.33,3.03-4.58,3.03-4.58,0,0-2.25,1.33-4.34,2.09-2.09,.76-6.34,1.57-6.34,1.57,0,0,2.25-1.08,5.53-3.93,3.28-2.85,4.47-5.01,4.77-6.45,.3-1.44,.41-4.9,.03-6.42-.38-1.52-1.03-4.58-3.09-7.64-2.06-3.06-4.04-5.39-4.88-6.07-.73-.58-2.15-1.39-2.53-1.6,.02,.03,.05,.06,.07,.09,.68,.59,3.27,2.95,4.66,5.25,.08,.13,.16,.27,.24,.41,1.12,1.75,2.14,3.89,2.65,6.38,0,.04,.01,.07,.02,.1,.31,1.24,.47,2.47,.4,3.57,0,.08-.02,.17-.02,.25-.05,3.73-1.44,5.78-2.13,6.83-.27,.46-.55,.82-.8,1.05-.22,.2-.49,.41-.81,.61-1.27,1.02-2.93,1.91-4.04,1.76-.09-.01-.18-.03-.27-.05-.62-.04-1.19-.23-1.62-.5-.32-.13-.59-.27-.81-.38,.05-.09,.09-.18,.11-.25,.18-.65,.41-2.13-.41-4.01-.83-1.89-2.47-2.21-2.47-2.21,0,0,.7-1.27,.17-3.1-.53-1.83-1.68-2.35-1.68-2.35,0,0,.68-.9-.15-3.02-.83-2.13-2.78-2.1-2.78-2.1,0,0,.06-2.15-.49-3.71-.55-1.56-3.52-2.79-3.52-2.79,0,0,.83-1.44,.3-3.56-.53-2.12-4.09-3.94-4.09-3.94h0s.34-.44,.94-.94c.77-.69,1.94-1.54,3.21-1.85,.18-.04,.37-.08,.58-.11,1.09-.3,2.23-.46,3.29-.46,1.68,0,3.7,.16,3.71,.16h0s-3.66-2.03-6.34-2.06c-2.68-.03-3.63,.35-4.93,.87-1.3,.51-1.84,.22-2.93,.84-1.08,.62-2.09,1.98-2.9,2.33-.43,.18-.93,.37-1.53,.59-.14,.03-.27,.05-.4,.08-.42,.13-1.18,.46-2.06,.88-.77,.33-1.9,.86-3.17,1.66-.43,.25-.82,.49-1.14,.71-.53,.33-1.03,.72-1.51,1.15-.38-.11-.75-.22-1.11-.32,.03-.04,.06-.08,.09-.12,2.79-3.39,7.37-6.42,9.11-6.88,1.2-.32,1.69-.31,1.87-.28-.68-.22-4.86-1.55-8.73-1.4-4.23,.16-11.84,1.52-11.92,1.54-.08,.03,2.06-1.6,4.01-2.66,1.95-1.06,8.78-3.5,8.78-3.5,0,0-4.61-2.36-8.29-2.6-3.69-.24-13.28,.92-13.28,.92,0,0,1.36-1.11,2.68-2.01,1.33-.89,4.34-1.84,4.34-1.84,0,0-3.47-.6-6.8-.62-3.33-.03-5.96-.13-8.1,0s-3.2-.38-5.09-2.01c-1.9-1.63-3.74-4.74-3.74-4.74,0,0,3.39,2.47,5.36,3.2,1.98,.73,3.77,1.6,3.77,1.6,0,0,1.95-.54,3.9-.98,1.95-.43,4.52-1.08,7.97-1.11,3.44-.03,10.76-.51,10.76-.51l-2.38,2.09s3.01-.05,5.12,0c0,0,8.46,.05,10.43,.27,1.98,.22,2.87,.41,2.87,.41,0,0-2.22,.79-2.98,1.38-.76,.6-1.3,1.11-1.3,1.11,0,0,3.33,1.22,5.31,2.22,1.98,1,3.17,2.19,4.12,3.01,.95,.81,3.71,1.44,5.18,1.76,1.46,.33,2.49,.65,3.28,1.03,.79,.38,1.79,.7,1.87,.7s2.41,.35,4.53,.14c2.11-.22,5.53-.84,8.43-.62,2.9,.22,9.89,2,9.89,2,0,0-.35,.49-.87,.79-.51,.3-2.6,1.25-2.76,1.35-.16,.11,2.82,.68,4.42,1,1.6,.33,4.82,2.09,4.82,2.09,0,0-.49,.35-1.16,.49-.68,.14-2.03,1.19-2.09,1.27-.05,.08,1.3,.41,2.47,1.22,2.71,1.82,5.26,6.53,5.26,6.53,0,0-1.79-.51-2.47-.54Z"/><path class="cls-3" d="M118.77,89.8c2.53,3.91,5.02,6.77,5.02,6.77,0,0-.43-.2-3.19-1.79-2.76-1.58-4.32-2.94-4.32-2.94,0,0,2.24,3.33,3.4,5,1.15,1.67,5.75,6.34,10.75,9.35l.03,.02,2.25,.09c3.01,.12,5.05,.22,7.43,.34v-.04l5.67,.35,.49,.03c.76-.35,1.54-.68,2.28-.95,3.76-1.38,9.55-1.65,9.55-1.65,0,0-2.16,1.8-3.4,3.15l3.32,.25c.07-.03,.13-.07,.2-.1,2.99-1.54,8.4-4.23,14.1-5,5.7-.77,8.87,.29,8.87,.29,0,0-2.54,3.23-4.57,6.45l.3,.03v.02c.39,.04,.8,.08,1.28,.13l2.04,.21c.45-.42,.92-.85,1.4-1.26,5.11-4.39,10.7-7.17,13.37-8.6,2.67-1.43,3.15-1.45,3.15-1.45,0,0,0-4.12,.61-6.07,.61-1.95,1.45-3.28,3.15-5.45,1.7-2.17,5.23-3.73,5.23-3.73,0,0,.41,1.79,.93,3.44,.52,1.65,1.09,2.76,3.08,6.18,1.99,3.42,7.2,8.03,7.2,8.03,0,0-.07-.18-.54-2.04-.48-1.86-.7-4.28-.79-6.72-.09-2.44,1.02-4.59,1.02-4.59,0,0-.75,.32-1.22,.93-.48,.61-1.13,2.01-1.13,2.01,0,0-1.06-3.53-.91-5.68,.16-2.15,.75-4.21,.75-4.21,0,0-1.86,.48-2.83,1.74-1.18-14.08,11.56-17.11,11.56-17.11,0,0-.57,.68-1.49,2.81-.93,2.13-1.04,5.41-1.04,5.41,0,0,.81-.84,1.4-1.27,.59-.43,1.86-.86,1.86-.86,0,0-.34,1.09-1.02,3.08-.68,1.99-.77,4.3-.77,4.3,0,0,.23-.23,1.09-.7,.86-.47,1.49-.61,1.49-.61,0,0-.29,.97-.66,2.44-.93,6.54,5.27,12.49,5.27,12.49,0,0-.48-1.34-.88-3.51-.41-2.17-.43-2.13-.52-4.8-.09-2.67,.5-4.44,.5-4.44,0,0-.57,.25-1.11,.72-.54,.48-1.56,1.58-1.56,1.58,0,0-.16-2.26,.97-5.02,1.13-2.76,2.15-3.87,2.15-3.87,0,0-.93,.16-2.31,.79-1.38,.63-1.77,1.04-1.77,1.04,0,0,0-.16,.05-.7,.04-.54,.29-1.74,1.4-3.76s3.28-4.01,3.28-4.01c0,0-.41-.07-1.43,.16-1.02,.23-2.47,.77-2.47,.77,0,0,.5-1.54,2.76-3.24,2.26-1.7,4.19-2.58,6.68-3.62,2.49-1.04,6.68-1.11,6.68-1.11,0,0-.16,.43-.91,1.15-.75,.72-1.58,1.81-3.1,4.32-1.52,2.51-1.79,4.93-1.81,6.88-.02,1.95,.27,3.35,1.58,7.08,1.31,3.73,3.08,5.66,4.91,7.69,1.83,2.04,5.93,3.62,8.87,4.37,2.94,.75,6,.61,8.64,.16s4.5-2.31,5.48-3.3c.97-1,1.11-1.63,1.13-2.87,.02-1.24-.2-4.3,0-6.45,.2-2.15,.34-3.64,.95-5.73,.61-2.08,2.26-6.34,3.33-8.74,1.06-2.4,3.46-7.63,4.05-9.12,.59-1.49,.48-2.83,.29-3.87-.18-1.04-.18-4.12-.18-4.12,0,0-.72-.04-1.54-.14-.81-.09-1.7-.81-2.53-1.72-.84-.91-1-2.08-1-2.08,0,0-1.18,.38-2.63,.41-1.45,.02-3.39-.66-4.37-1.4-.97-.75-1.15-2.56-1.15-2.56,0,0-2.2,.95-3.37,1.56-1.18,.61-3.26,2.06-4.53,3.21-1.27,1.15-3.35,3.64-3.76,4.21-.41,.57-1.7,3.1-1.7,3.1,0,0,.48-2.15,.95-3.1,.48-.95,1.18-1.72,1.18-1.72,0,0-1.61-.32-2.33-1.11-.72-.79-1.2-2.1-1.29-2.53-.09-.43-.5-.63-.5-.63,0,0,1.54-.05,2.49,.18,.95,.23,1.06,.57,1.04,.48-.02-.09-.36-.88-.77-1.56-.41-.68-.95-.77-1.79-.77s-3.21,1.38-3.21,1.38c0,0,1.83-1.92,3.83-2.49,1.99-.57,2.22,.34,2.85,1.36,.63,1.02,1.34,2.58,1.34,2.58,0,0,.68-.95,1.29-1.67,.61-.72,1.11-1.11,1.11-1.11,0,0-3.46-1.65-5.45-1.95-1.99-.29-3.76,.5-4.5,.97-.75,.48-1.4,1.67-1.9,2.22-.5,.54-1.74,.61-1.74,.61,0,0-1.27,.09-3.24,.52-1.97,.43-3.26,1.15-5.82,2.24-2.56,1.09-5.34,3.35-8.22,5.23-2.87,1.88-8.31,6-10.73,7.88-2.42,1.88-5.7,5.3-7.29,6.99-1.58,1.7-2.74,3.85-3.26,5.09-.52,1.24-.07,1.31-.27,2.04s-.7,1.88-2.01,3.08c-1.31,1.2-2.83,3.21-4.21,5.14-1.38,1.92-2.65,6.11-2.65,6.11,0,0-6.68,2.78-8.76,4.03-2.08,1.24-4.19,3.42-4.19,3.42,0,0-8.15-1.29-13.37-1.7-5.23-.41-8.19,.27-9.12,.54-.93,.27-1.63-.05-1.63-.05,0,0-.16-.04,.34,.39,.5,.43,2.01,1.13,2.01,1.13,0,0-7.26,3.69-10.07,5.59-2.81,1.9-5.75,4.55-5.75,4.55,0,0-3.35-1.13-8.24-3.71-4.89-2.58-8.08-5.16-12.7-9.41-4.62-4.25-9.03-11.61-9.03-11.61,0,0,2.33,5.88,4.87,9.8Zm130.69-22.72c.75-6.17,3.96-13,4.52-14.15,.55-1.15,4.26-3.76,8.48-5.97,4.22-2.21,7.38-.8,7.38-.8,0,0,1.3,.65,1.91,1.25,.6,.6,1.91,3.26,2.31,4.97,.4,1.71-.2,4.82-.95,6.37-.75,1.56-4.57,8.68-5.77,10.84-1.2,2.16-1.96,6.12-2.01,8.83-.05,2.71,.15,4.77-.1,5.87-.25,1.1-.35,1.15-4.27,1.3-3.91,.15-8.28-2.41-9.99-3.61-1.71-1.2-2.26-2.91-2.41-4.57-.15-1.66,.15-4.17,.9-10.34Z"/><path class="cls-3" d="M276.65,63.36s-.82,2.15-.98,3.84c-.16,1.68,.16,3.48,.31,5.05,.16,1.57-.16,2.58-.16,2.58,0,0-.82-1.72-1.21-2.27-.39-.55-1.37-1.29-1.37-1.29,0,0,1.21,3.13,1.45,5.44,.23,2.31-1.53,4.74-2.11,5.56-.59,.82-1.49,1.45-1.68,1.8-.2,.35-.39,1.88-.82,3.44-.43,1.57-2.94,4.03-4.74,5.33-1.8,1.29-7.13,3.25-7.13,3.25,0,0,2.86-.47,5.36-1.33,2.51-.86,5.29-3.13,6.93-4.89,1.64-1.76,1.68-4.11,1.92-4.89,.23-.78,.74-.94,1.84-2.11,1.1-1.17,1.88-2.86,2.82-6.93,.94-4.07-.23-5.95-.55-8.07-.31-2.11,.12-4.5,.12-4.5Z"/><path class="cls-3" d="M78.54,76.51c2.07,2.7,5.8,2.27,8.14,.98,2.35-1.29,3.76-4.19,4.93-5.48,1.17-1.29,2.62-1.1,5.68-2.31,4.39-1.76,5.55-7.79,3.45-9.87-3.41-3.68-18.83-.74-23.14,7.99-1.45,2.35-1.14,5.99,.94,8.69Z"/><path class="cls-3" d="M100.66,53.07c-1.14-1.04-2.73-1.15-3.54-.26-.81,.89-.54,2.46,.61,3.49,1.14,1.04,2.73,1.15,3.54,.26,.81-.89,.54-2.46-.61-3.49Z"/><path class="cls-3" d="M74.28,67.08c1.17,.28,2.41-.72,2.76-2.22,.35-1.5-.31-2.94-1.49-3.22-1.17-.28-2.41,.72-2.76,2.22-.35,1.5,.31,2.94,1.49,3.22Z"/><path class="cls-3" d="M90.42,55.73c.92,1.31,2.58,1.74,3.71,.95,1.13-.79,1.3-2.49,.39-3.81-.92-1.32-2.58-1.74-3.71-.95-1.13,.79-1.3,2.49-.38,3.81Z"/><path class="cls-3" d="M78.53,62.64c1.32,.4,2.76-.51,3.23-2.05,.47-1.53-.22-3.1-1.54-3.5-1.32-.4-2.76,.51-3.23,2.05-.47,1.53,.22,3.1,1.54,3.5Z"/><path class="cls-3" d="M84.72,53.5c-1.54,.57-2.33,2.25-1.77,3.76,.56,1.5,2.26,2.26,3.79,1.68,1.54-.57,2.33-2.25,1.77-3.76-.56-1.5-2.26-2.26-3.8-1.68Z"/><path class="cls-3" d="M357.27,133.27c-1.17-.81-2.52-1.14-2.47-1.22,.05-.08,1.41-1.14,2.09-1.27,.68-.14,1.16-.49,1.16-.49,0,0-3.22-1.76-4.82-2.09-1.6-.33-4.58-.89-4.42-1,.16-.11,2.25-1.06,2.76-1.35,.51-.3,.87-.79,.87-.79,0,0-6.99-1.79-9.89-2-2.9-.22-6.31,.41-8.43,.62-2.11,.22-4.44-.14-4.53-.14s-1.08-.32-1.87-.7c-.79-.38-1.82-.7-3.28-1.03-1.46-.33-4.23-.95-5.18-1.76-.95-.81-2.14-2.01-4.12-3.01-1.98-1-5.31-2.22-5.31-2.22,0,0,.54-.51,1.3-1.11,.76-.6,2.98-1.38,2.98-1.38,0,0-.89-.19-2.87-.41-1.98-.22-10.43-.27-10.43-.27-2.11-.05-5.12,0-5.12,0l2.38-2.09s-7.32,.49-10.76,.51c-3.44,.03-6.02,.68-7.97,1.11-1.95,.43-3.9,.98-3.9,.98,0,0-1.79-.87-3.77-1.6-1.98-.73-5.36-3.2-5.36-3.2,0,0,1.84,3.11,3.74,4.74,1.9,1.63,2.95,2.14,5.09,2.01s4.77-.03,8.1,0c3.33,.03,6.8,.62,6.8,.62,0,0-3.01,.95-4.34,1.84-1.33,.89-2.68,2.01-2.68,2.01,0,0,9.59-1.17,13.28-.92,3.69,.24,8.29,2.6,8.29,2.6,0,0-6.83,2.44-8.78,3.5-1.95,1.06-4.09,2.68-4.01,2.66,.08-.03,7.7-1.38,11.92-1.54,3.87-.15,8.05,1.18,8.73,1.4-.19-.03-.67-.04-1.87,.28-1.73,.46-6.31,3.5-9.11,6.88-.03,.04-.06,.08-.09,.12,.36,.11,.73,.21,1.11,.32,.48-.43,.98-.82,1.51-1.15,.32-.22,.71-.46,1.14-.71,1.27-.8,2.4-1.33,3.17-1.66,.88-.42,1.64-.75,2.06-.88,.13-.03,.27-.06,.4-.08,.6-.22,1.11-.41,1.53-.59,.81-.35,1.82-1.71,2.9-2.33,1.08-.62,1.63-.33,2.93-.84,1.3-.51,2.25-.89,4.93-.87,2.68,.03,6.34,2.06,6.34,2.06h0s-2.04-.16-3.71-.16c-1.06,0-2.2,.16-3.29,.46-.21,.03-.41,.07-.58,.11-1.28,.3-2.44,1.16-3.21,1.85-.6,.49-.98,.91-.94,.94h0s3.56,1.82,4.09,3.94c.53,2.13-.3,3.56-.3,3.56,0,0,2.97,1.23,3.52,2.79,.55,1.56,.49,3.71,.49,3.71,0,0,1.95-.03,2.78,2.1,.83,2.13,.15,3.02,.15,3.02,0,0,1.15,.52,1.68,2.35,.53,1.83-.17,3.1-.17,3.1,0,0,1.64,.33,2.47,2.21,.83,1.89,.59,3.37,.41,4.01-.02,.07-.06,.16-.11,.25,.22,.12,.5,.25,.81,.38,.44,.27,1.01,.46,1.62,.5,.09,.02,.18,.03,.27,.05,1.11,.15,2.77-.74,4.04-1.76,.31-.21,.59-.42,.81-.61,.25-.23,.52-.59,.8-1.05,.69-1.06,2.09-3.11,2.13-6.83,0-.08,.02-.17,.02-.25,.07-1.1-.09-2.32-.4-3.57,0-.04-.01-.07-.02-.1-.51-2.49-1.53-4.63-2.65-6.38-.08-.14-.16-.28-.24-.41-1.38-2.3-3.98-4.65-4.66-5.25-.02-.03-.05-.06-.07-.09,.38,.21,1.81,1.02,2.53,1.6,.84,.68,2.82,3.01,4.88,6.07,2.06,3.06,2.71,6.13,3.09,7.64,.38,1.52,.27,4.99-.03,6.42-.3,1.44-1.49,3.61-4.77,6.45-3.28,2.85-5.53,3.93-5.53,3.93,0,0,4.25-.81,6.34-1.57,2.09-.76,4.34-2.09,4.34-2.09,0,0-1.84,3.25-3.03,4.58-.84,.93-1.96,2.09-2.56,2.69,.08,.1,.15,.2,.22,.3,1.01-.21,3.03-.68,4.52-1.37,2.06-.95,4.09-2.33,4.09-2.33,0,0-2.95,3.71-5.39,5.69-.89,.72-2.18,1.47-3.46,2.13l-.27,1c.07-.02,.14-.04,.21-.06,1.81-.57,5.09-2.03,9.51-4.5,4.42-2.47,8.29-7.48,10.24-11.6,1.95-4.12,1.27-4.69,1.52-9.51,.24-4.82-1.38-8.64-1.65-9.4-.27-.76-.6-2.55-.6-2.55l.68,.03c.68,.03,2.47,.54,2.47,.54,0,0-2.55-4.72-5.26-6.53Z"/><path class="cls-4" d="M250.97,81.98c1.71,1.2,6.07,3.76,9.99,3.61,3.91-.15,4.01-.2,4.27-1.3,.25-1.1,.05-3.16,.1-5.87,.05-2.71,.8-6.67,2.01-8.83,1.2-2.16,5.02-9.28,5.77-10.84,.75-1.56,1.35-4.67,.95-6.37-.4-1.71-1.71-4.37-2.31-4.97-.6-.6-1.91-1.25-1.91-1.25,0,0-3.16-1.4-7.38,.8-4.22,2.21-7.93,4.82-8.48,5.97-.55,1.15-3.76,7.98-4.52,14.15-.75,6.17-1.05,8.68-.9,10.34,.15,1.66,.7,3.36,2.41,4.57Zm20.82-29.22s.63,1.12,.28,2.43c-.35,1.31-.44,1.73-.8,2.29-.35,.56-.77,1.03-.77,1.03,0,0,.02-.8-.02-1.36-.05-.56-.33-1.73-.61-2.22-.28-.49-.35-1.03-.35-1.03,0,0,1.03-.59,1.5-.82,.47-.23,.77-.33,.77-.33Zm-7.51-4.09s.3-.44,.8-.68c.49-.23,.4-.33,2.08,0,1.68,.33,3.06,2.2,3.14,2.46,.07,.26-.02,.75-.42,1.36-.4,.61-.44,.4-.44,.4,0,0,.05-.23,.05-.4s-.05-.84-.12-1.01c-.07-.16-.84-.51-1.64-.87-.8-.35-2.06-.66-2.06-.66,0,0-.54,.21-.7,.47-.16,.26-.49,.89-.49,.89,0,0-.05,.19-.19-.33-.14-.51,0-1.64,0-1.64Zm-4.07,1.1c.8-.49,2.04-.89,2.04-.89,0,0-.4,.94-.89,2.11-.49,1.17-.7,1.61-.79,2.34-.09,.73-.23,1.5-.23,1.5,0,0-.73-1.15-1.01-2.34-.28-1.19-.3-1.52-.3-1.52,0,0,.4-.7,1.19-1.19Zm-6.46,24.38c.12-.63,.54-1.43,1.19-2.32,.66-.89,2.11-1.73,2.11-1.73,0,0-.65,1.45-.75,2.62-.09,1.17,.12,1.73,.12,1.73l4.66,1.54s.68,.09,1.26-.19c.58-.28,2.43-2.55,2.43-2.55,0,0-.02,1.15-.44,2.55-.42,1.4-1.45,2.41-1.57,2.48-.12,.07-.28,.07-1.03-.33-.75-.4-1.54-.82-3.06-1.29-1.52-.47-5.05-.84-5.05-.84,0,0,.02-1.05,.14-1.68Z"/><path class="cls-4" d="M89.97,116.44c.64,3.14,.96,4.71,1.59,7.85,1.59-.08,2.63-.4,3.13-.96,.51-.57,.63-1.55,.36-2.93-.28-1.42-.78-2.44-1.51-3.08-.73-.64-1.74-.94-3.03-.9-.22,0-.33,.01-.54,.02Z"/><path class="cls-4" d="M126.2,116.05c-1.38-.03-2.23,.55-2.5,1.71-.27,1.17-.13,3.55,.42,7.11,.5,3.28,1.07,5.58,1.73,6.82,.63,1.18,1.62,1.77,2.91,1.74,1.27-.02,2.05-.59,2.37-1.71,.31-1.1,.26-3.13-.16-6.09-.54-3.83-1.13-6.37-1.75-7.63-.63-1.27-1.63-1.92-3.02-1.95Z"/><path class="cls-4" d="M220.25,138.21c1.25,.16,2.11-.17,2.58-.98,.47-.8,.73-2.35,.76-4.67,.04-2.99-.15-5.01-.58-6.06-.43-1.06-1.31-1.7-2.67-1.92-1.35-.22-2.26,.1-2.7,.95-.44,.85-.66,2.7-.66,5.5,0,2.58,.21,4.43,.67,5.46,.44,.99,1.33,1.57,2.6,1.73Z"/><path class="cls-2" d="M58.92,150.53c-9.03,1.16-18.03,2.51-27.01,4.03-.83,.14-1.16,.59-1.08,.98l24.06,2.56-11.46,5.95c6.9,26.05,13.8,52.1,20.7,78.15,.42,1.58,.37,2.89-.62,4.28-1.72,2.33-2.56,3.51-4.23,5.9-.2,.67-1,1.29-.89,1.69,.08,.28,.33,.49,.72,.49,.16,0,.34-.04,.55-.12,9.12-3.71,18.33-7.19,27.63-10.43,14.7-4.92,20.77-18.41,18.22-33.03-1.72-9.85-18.86-17.35-18.97-17.82,0,0,12.75-14.09,10.76-24.07-2.88-14.46-17.09-19.12-30.39-19.12-2.73,0-5.43,.2-7.98,.55Zm11.8,43.5c-1.19,.26-1.79,.4-2.98,.67-3-12.52-6.01-25.04-9.02-37.55,1.28-.19,1.92-.28,3.21-.46,1.16-.21,2.27-.3,3.32-.3,8.54,0,13.42,6.54,15.22,15.07,1.94,9.2,1.77,20.59-9.75,22.57Zm13.52,44.25c-2.24,.74-3.35,1.12-5.58,1.89-3.13-13.03-6.26-26.06-9.38-39.09,1.17-.28,1.76-.43,2.94-.7,1.44-.43,2.8-.62,4.06-.62,7.43,0,11.78,6.82,13.24,14.23,1.45,7.33,5.4,21.52-5.27,24.3Z"/><path class="cls-4" d="M89.51,213.98c-1.46-7.41-5.81-14.23-13.24-14.23-1.26,0-2.62,.2-4.06,.62-1.18,.28-1.76,.42-2.94,.7,3.13,13.03,6.26,26.06,9.38,39.09,2.23-.77,3.34-1.14,5.58-1.89,10.67-2.78,6.72-16.96,5.27-24.3Z"/><path class="cls-4" d="M65.25,156.38c-1.05,0-2.16,.1-3.32,.3-1.28,.18-1.92,.27-3.21,.46,3,12.52,6.01,25.04,9.02,37.55,1.19-.27,1.78-.4,2.98-.67,11.52-1.98,11.69-13.37,9.75-22.57-1.8-8.54-6.68-15.07-15.22-15.07Z"/><path class="cls-4" d="M189.76,172.04c-.17,0-.25,0-.41,0-1.95,8.07-3.81,16.14-5.58,24.25-.16,.37,.16,.54,.52,.54,.03,0,.07,0,.1,0,4.96-.45,7.45-.65,12.42-1,.59-.04,.98-.35,.77-.72-2.58-7.7-5.18-15.39-7.82-23.07Z"/><path class="cls-2" d="M267.88,183.11c2.03,0,15.67-3.4,16.75-10.92,1.92-13.36-22.36-17.63-31.68-19.04-8.88-1.4-17.79-2.62-26.73-3.67-.15-.02-.29-.03-.41-.03-.59,0-.89,.18-.89,.4,0,.07,.07,.15,.19,.23l-.19-.23,19.78,6.33-10.29,3.79c-.64,15.85-1.28,31.69-1.92,47.54-.04,1.01-.46,1.79-1.83,2.48-.57,.28-1.06,.52-1.53,.75-.78,.38-2.63,1.24-3.58,1.55-1.23,.39-1.58,.2-3.51-.1-.04,0-.07-.01-.11-.02-.92-.29-1.8-.58-3.02-.97-.11-.03-.21-.08-.31-.12-.17-.08-.27-.13-.27-.13h0c-.92-.46-1.35-1.22-1.51-1.95-6.33-20.52-12.95-40.93-19.84-61.27-.23-.58-.89-1.1-1.97-1.17-3.19-.23-4.79-.33-7.99-.52-.08,0-.16,0-.24,0-.91,0-1.27,.34-1.45,.78-5.72,22.45-10.49,45.03-14.47,67.85-.12,.95-.23,2-1.32,2.81-2.02,1.52-3.03,2.29-5.03,3.86-.19,.15-.8,.47-1.5,.84l-.21-2.35,.05-.03c-.71-7.89-1.43-15.78-2.14-23.68-2.2,20.87-13.04,24.92-15.48,25.45-4.26,.92-6.39,1.4-10.63,2.4-1.6-11.4-3.2-22.79-4.81-34.19,1.76-.25,2.63-.37,4.39-.6,8.51,1.69,10.67,8.15,11.47,8.15h.02c.59-.08,.76-.33,.72-.65-.88-7.66-1.76-15.32-2.63-22.97-.04-.39-.24-.59-.73-.59-.05,0-.11,0-.17,0-.62,.05-1.63,7.98-9.47,10.16-1.78,.21-2.67,.32-4.44,.54-1.54-10.98-3.09-21.97-4.63-32.95,4.9-.23,7.35-.32,12.25-.46,16.8,3.92,19.86,17.83,21.94,21.47-.79-8.67-1.57-17.35-2.36-26.02-.05-.52-.95-.95-1.82-.96-1.22,0-2.44,0-3.67,0-17.54,0-35.02,.56-52.54,1.7-.87,.06-1.24,.45-1.17,.81,.06,.36,1.21,.63,1.71,.95,2.84,1.18,4.25,1.77,7.06,2.94,1.64,.71,2.24,1.72,2.48,3.12,3.9,23.52,7.8,47.04,11.7,70.56,.23,1.4,.03,2.54-1.12,3.7-1.98,1.95-2.96,2.94-4.9,4.94-.28,.58-1.14,1.08-1.08,1.44,.05,.26,.3,.47,.72,.47,.15,0,.31-.02,.5-.08,14.03-4,28.12-7.55,42.36-10.68,1.04-.22,2.73-.58,4.15-.88,.81-.03,3.3-.7,3.93-.82,7.16-1.43,14.35-2.72,21.57-3.88,.94-.15,1.31-.5,1.29-.8-.01-.29-1.16-.5-1.94-.88-1.71-.64-2.57-.97-4.29-1.62-.79-.38-1.2-.92-1.05-1.64,.88-4.55,1.34-6.81,2.27-11.28,.17-.42,.55-.76,1.13-.82,5.77-.63,8.66-.9,14.45-1.39,.1,0,.2-.01,.29-.01,.8,0,1.3,.31,1.49,.71,1.26,3.84,1.88,5.74,3.09,9.51,.21,.81-.17,1.51-.92,1.97-2.05,1.25-3.06,1.89-5.08,3.2-.56,.36-1.31,.75-1.3,1.04,0,.23,.26,.42,.84,.42,.15,0,.32-.01,.51-.04,8.16-1.16,16.34-2.14,24.54-2.97,1.17-.11,2.36-.23,3.23-.33h0c10.03-.96,20.08-1.59,30.14-2.11,.77-.03,1.18-.28,1.2-.51,.02-.23-.93-.42-1.29-.64-2.24-.8-3.36-1.21-5.62-2.03-1.32-.5-1.65-1.2-1.59-2.15,.53-7.53,1.07-15.06,1.59-22.58,1.38,.07,2.06,.1,3.44,.17,23.33,10.04,11.73,55.77,50.5,58.42-25.85-11.93-10.27-39.77-35.09-59.71Zm-71.08,12.71c-4.97,.35-7.46,.55-12.42,1-.03,0-.07,0-.1,0-.36,0-.68-.17-.52-.54,1.78-8.11,3.64-16.18,5.58-24.25,.17,0,.25,0,.41,0,2.64,7.68,5.24,15.37,7.82,23.07,.21,.36-.18,.67-.77,.72Zm57.95-15.23c-.78,0-1.58-.05-2.39-.15-1.22-.08-1.83-.12-3.06-.2,.55-7.79,1.1-15.59,1.65-23.38,1.27,.18,1.91,.27,3.18,.46,6.82,.5,14.37,4.6,13.52,12.37-.8,7.26-6.18,10.9-12.9,10.9Z"/><path class="cls-4" d="M267.66,169.7c.85-7.77-6.69-11.87-13.52-12.37-1.27-.19-1.9-.28-3.18-.46-.55,7.79-1.1,15.59-1.65,23.38,1.22,.08,1.83,.12,3.06,.2,.81,.1,1.61,.15,2.39,.15,6.72,0,12.11-3.63,12.9-10.9Z"/><path class="cls-2" d="M321.42,189.38c-4.82-4.55-15.13-12.1-14.5-18.99,.1-1.1,.64-2.17,2.87-2.17,.84,0,1.92,.15,3.31,.51,8.33,2.17,15.97,9.74,19.76,17.28,.13,.26,.51,.52,1.11,.65,.39,.09,.69,.13,.91,.13,.23,0,.36-.05,.38-.13,1.45-5.38,2.18-8.06,3.63-13.44,.09-.33-.25-.72-1.28-1.02-1.24-.37-2.58-.49-4.52-.54-1.96-.05-4.15-.19-4.98-.41-.83-.22-2.07-.72-3.02-1.18-2.91-1.41-7.48-3.36-11.35-4.42-2.6-.71-6.9-1.63-10.92-1.63-4.67,0-8.94,1.23-9.69,5.45-1.33,7.45,7.02,14.68,12.12,19.61,5.16,4.99,14.22,11.33,13.92,17.63-.07,1.39-2.37,2.62-5.66,2.62-.24,0-.48,0-.73-.02-9.07-.49-14.85-8.08-18.78-14.64-.12-.21-.52-.52-1.12-.58-.1,0-.19-.01-.27-.01-.58,0-.77,.21-.8,.39-1.1,6.71-1.66,10.06-2.76,16.77-.03,.2,.14,.33,.92,.34h.04c.76,0,1.57-.25,2.36-.42,3.91-.88,5.58-1.25,6.4-1.25,.03,0,.06,0,.09,0,.58,.02,1.73,.25,3.77,.77,2.23,.58,5.41,1.37,10.66,1.64,1,.05,2.12,.09,3.3,.09,6.36,0,14.59-1.04,16.67-6.25,2.37-5.93-7.83-13.02-11.82-16.79Z"/><path class="cls-1" d="M85.5,113.85c1.68,8.05,3.36,16.09,5.04,24.14,1.5-.13,2.25-.19,3.75-.3-.86-4.25-1.3-6.38-2.16-10.63,2.11-.12,3.71-.4,4.71-.88,2.02-.97,2.77-3.09,2.17-6.23-.43-2.23-1.3-3.85-2.62-4.85-1.32-1-3.24-1.47-5.72-1.4-2.07,.06-3.1,.09-5.17,.16Zm8.05,3.47c.73,.64,1.23,1.66,1.51,3.08,.27,1.39,.15,2.36-.36,2.93-.5,.56-1.54,.88-3.13,.96-.64-3.14-.96-4.71-1.59-7.85,.22,0,.33-.01,.54-.02,1.29-.04,2.3,.26,3.03,.9Z"/><path class="cls-1" d="M112.01,122.42c-2.26,.04-3.38,.06-5.64,.12-.65-3.64-.98-5.46-1.64-9.1-1.57,.01-2.35,.02-3.92,.04,1.45,7.81,2.9,15.63,4.36,23.44,1.5-.09,2.25-.13,3.75-.22-.83-4.6-1.24-6.91-2.07-11.51,2.25-.07,3.37-.1,5.61-.15,.78,4.55,1.17,6.83,1.95,11.38,1.5-.07,2.25-.11,3.74-.17-1.25-7.6-2.51-15.21-3.77-22.81-1.56-.01-2.35-.01-3.91-.02,.62,3.6,.92,5.4,1.54,9Z"/><path class="cls-1" d="M120.31,115.73c-.86,1.65-.96,4.5-.32,8.53,.72,4.51,1.78,7.65,3.14,9.38,1.39,1.76,3.43,2.6,6.13,2.53,2.57-.06,4.28-.92,5.15-2.56,.87-1.64,1.05-4.39,.53-8.26-.38-2.76-.85-4.87-1.38-6.31-.57-1.55-1.28-2.78-2.17-3.65-1.34-1.3-3.24-1.99-5.67-2.05-2.72-.07-4.53,.73-5.4,2.39Zm8.91,2.27c.62,1.26,1.21,3.8,1.75,7.63,.42,2.96,.47,4.99,.16,6.09-.31,1.11-1.1,1.68-2.37,1.71-1.29,.02-2.28-.56-2.91-1.74-.66-1.24-1.23-3.53-1.73-6.82-.54-3.56-.69-5.95-.42-7.11,.27-1.16,1.12-1.73,2.5-1.71s2.39,.68,3.02,1.95Z"/><path class="cls-1" d="M137.23,114c.94,7.24,1.88,14.48,2.82,21.72,3.98-.03,5.97-.03,9.94,0-.11-.97-.17-1.45-.28-2.42-2.49-.03-3.74-.05-6.23-.06-.36-2.94-.55-4.41-.91-7.35,2.24,.05,3.36,.08,5.6,.14-.11-.97-.17-1.45-.28-2.42-2.25-.08-3.38-.11-5.63-.17-.34-2.73-.51-4.09-.84-6.82,2.57,.11,3.86,.17,6.43,.3-.11-.97-.17-1.45-.28-2.42-4.14-.24-6.21-.34-10.35-.51Z"/><path class="cls-1" d="M159.43,123.47c-1.84-3.38-2.77-5.08-4.65-8.52-1.45-.1-2.17-.15-3.62-.24,.76,7.01,1.52,14.03,2.27,21.04,1.48,.02,2.22,.03,3.7,.06-.45-3.64-.68-5.46-1.13-9.1-.03-.26-.05-.49-.08-.7-.03-.21-.06-.38-.08-.53-.19-1.04-.29-1.55-.48-2.59-.17-.85-.25-1.28-.42-2.13-.02-.12-.06-.26-.1-.43s-.16-.61-.15-.61c0,0,.18,.45,.26,.63,.07,.18,.13,.35,.17,.47,.34,1,.82,2,1.26,2.94,.44,.93,.9,1.84,1.38,2.73,2.07,3.81,3.09,5.71,5.1,9.45,1.4,.04,2.1,.06,3.49,.11-.59-6.79-1.18-13.58-1.76-20.38-1.55-.13-2.32-.19-3.88-.31,.28,3.07,.43,4.61,.71,7.68,.11,1.14,.29,2.35,.56,3.65,.27,1.29,1.07,4.34,1.07,4.34,0,0-2.27-5.18-3.6-7.57Z"/><path class="cls-1" d="M169.01,116.07c.53,6.72,1.07,13.43,1.6,20.15,1.49,.06,2.24,.09,3.73,.16-.49-6.65-.97-13.3-1.46-19.95-1.55-.15-2.32-.22-3.87-.36Z"/><path class="cls-1" d="M175.35,116.67c2.31,4.11,3.44,6.14,5.67,10.16-1.89,3.8-2.81,5.73-4.62,9.66,1.58,.08,2.36,.12,3.94,.21,.55-1.39,.82-2.08,1.38-3.46,.11-.29,.17-.43,.28-.71,.22-.54,.33-.81,.55-1.34,.2-.5,.39-1.58,.4-1.58,0,0,.32,.99,.58,1.6,.26,.6,.6,1.29,1.01,2.05,.82,1.53,1.22,2.29,2.03,3.81,1.5,.1,2.25,.15,3.75,.25-2.22-4.02-3.35-6.06-5.65-10.18,1.88-3.63,2.83-5.42,4.78-8.93-1.55-.19-2.33-.28-3.89-.46-.65,1.51-.97,2.26-1.61,3.79-.09,.22-.14,.32-.23,.54-.16,.38-.31,.77-.46,1.16-.14,.39-.36,1.2-.38,1.2,0,0-.71-1.83-1.57-3.4-.88-1.59-1.32-2.39-2.21-3.99-1.5-.16-2.25-.23-3.75-.38Z"/><path class="cls-1" d="M207.38,120.37c-2.9-.43-5.03,.06-6.39,1.49-1.36,1.43-1.98,3.82-1.88,7.15,.19,6.16,3.07,9.45,8.63,10,1.1,.11,2.1,.04,2.98-.19,0-.89-.01-1.34-.02-2.23-.86,.15-1.59,.2-2.19,.14-3.49-.37-5.29-2.81-5.4-7.35-.03-1.26,.04-2.35,.22-3.25,.18-.9,.47-1.63,.88-2.17,.41-.55,.93-.91,1.58-1.11,.64-.2,1.42-.23,2.32-.1,.66,.09,1.48,.37,2.46,.81,0-.87-.01-1.31-.02-2.18-1.04-.52-2.1-.86-3.17-1.01Z"/><path class="cls-1" d="M213.02,129.98c.02,3.56,.59,6.11,1.67,7.63,1.1,1.54,2.97,2.45,5.63,2.77,2.53,.3,4.34-.12,5.44-1.25,1.1-1.13,1.69-3.19,1.75-6.21,.04-2.15-.11-3.82-.41-5-.32-1.25-.84-2.3-1.58-3.09-1.12-1.18-2.88-1.99-5.25-2.39-2.65-.45-4.54-.1-5.65,1.05-1.09,1.14-1.63,3.32-1.61,6.49Zm4.62-4.46c.44-.85,1.35-1.17,2.7-.95,1.35,.22,2.24,.87,2.67,1.92,.42,1.05,.62,3.07,.58,6.06-.03,2.31-.29,3.87-.76,4.67-.48,.81-1.33,1.13-2.58,.98-1.27-.16-2.16-.74-2.6-1.73-.46-1.03-.67-2.87-.67-5.46,0-2.8,.22-4.65,.66-5.5Z"/><path class="cls-1" d="M234.74,140.12c.2-5.9,.3-8.86,.51-14.76-1.51-.29-2.27-.44-3.79-.72-.18,6.75-.28,10.12-.46,16.87,3.88,.53,5.82,.8,9.69,1.39,.03-.74,.05-1.12,.08-1.86-2.41-.38-3.61-.56-6.03-.92Z"/><path class="cls-1" d="M243.79,127.07c-.33,6.48-.49,9.71-.81,16.19,3.87,.6,5.8,.92,9.66,1.57,.05-.71,.07-1.07,.12-1.78-2.4-.42-3.6-.63-6.01-1.03,.33-5.66,.49-8.49,.81-14.16-1.51-.32-2.26-.48-3.77-.79Z"/><path class="cls-1" d="M256.06,129.72c-.46,6.2-.69,9.3-1.15,15.5,3.89,.68,5.83,1.03,9.7,1.77,.06-.68,.1-1.02,.16-1.7-2.42-.48-3.64-.71-6.07-1.16,.17-2.09,.26-3.13,.43-5.22,2.17,.45,3.26,.67,5.43,1.14,.06-.68,.1-1.02,.16-1.71-2.18-.48-3.27-.71-5.45-1.17,.16-1.94,.24-2.91,.39-4.84,2.48,.56,3.72,.85,6.19,1.44,.06-.68,.09-1.02,.16-1.7-3.97-.97-5.97-1.43-9.96-2.34Z"/><path class="cls-1" d="M270.6,134.47c-1.32,.72-2.13,2.64-2.44,5.74-.27,2.71,.08,4.76,1.05,6.12,.97,1.36,2.75,2.29,5.32,2.82,2.49,.52,4.25,.36,5.27-.4,1.02-.76,1.74-2.48,2.09-5.2,.03-.22,.04-.33,.07-.54-2.66-.66-4-.98-6.67-1.61-.08,.65-.11,.98-.19,1.64,1.28,.29,1.91,.44,3.19,.74-.01,.11-.02,.17-.03,.29-.02,.15-.03,.23-.05,.38-.16,1.27-.51,2.15-1.06,2.61-.52,.44-1.37,.53-2.53,.29-1.26-.27-2.07-.83-2.44-1.71-.37-.87-.44-2.42-.2-4.62,.23-2.18,.62-3.65,1.17-4.37,.53-.69,1.43-.88,2.67-.56,.9,.23,1.56,.55,1.98,.95,.21,.2,.39,.45,.55,.76,.16,.3,.29,.66,.4,1.07,1.41,.05,2.12,.08,3.53,.15-.44-1.17-1.14-2.12-2.1-2.84-.95-.71-2.34-1.32-4.15-1.79-2.37-.62-4.19-.59-5.43,.08Z"/><path class="cls-1" d="M286.51,137.4c-.76,5.5-1.13,8.25-1.89,13.75,3.84,.87,5.76,1.31,9.59,2.24,.1-.6,.14-.9,.24-1.5-2.39-.59-3.59-.88-6-1.45,.27-1.85,.41-2.77,.68-4.62,2.15,.55,3.22,.83,5.36,1.39,.09-.6,.14-.9,.24-1.51-2.15-.58-3.22-.87-5.37-1.43,.25-1.71,.37-2.57,.62-4.29,2.44,.68,3.66,1.03,6.09,1.73,.1-.6,.15-.9,.24-1.5-3.91-1.16-5.87-1.72-9.81-2.81Z"/><path class="cls-1" d="M269.89,39.53c1.4-.68,.94-2.46,.94-2.46,0,0-.4,1.03-1.01,1.5-1.25,.96-2.83,.91-2.83,.91,0,0,1.5,.72,2.9,.05Z"/><path class="cls-1" d="M274.92,43.36c.19,.12,.54,.09,.54,.09,0,0-.72-.59-.87-1.17-.14-.58-.19-.94-.07-1.33,.12-.4,.21-.84,.21-.84,0,0-1.33,.7-1.03,1.75s1.03,1.38,1.22,1.5Z"/><path class="cls-1" d="M260.33,54.83s.14-.77,.23-1.5c.09-.72,.3-1.17,.79-2.34,.49-1.17,.89-2.11,.89-2.11,0,0-1.24,.4-2.04,.89-.8,.49-1.19,1.19-1.19,1.19,0,0,.02,.33,.3,1.52,.28,1.19,1.01,2.34,1.01,2.34Z"/><path class="cls-1" d="M264.47,50.64s.33-.63,.49-.89c.16-.26,.7-.47,.7-.47,0,0,1.26,.3,2.06,.66,.8,.35,1.57,.7,1.64,.87,.07,.16,.12,.84,.12,1.01s-.05,.4-.05,.4c0,0,.05,.21,.44-.4,.4-.61,.49-1.1,.42-1.36-.07-.26-1.45-2.13-3.14-2.46-1.69-.33-1.59-.23-2.08,0-.49,.23-.8,.68-.8,.68,0,0-.14,1.12,0,1.64,.14,.51,.19,.33,.19,.33Z"/><path class="cls-1" d="M269.87,54.94c.28,.49,.56,1.66,.61,2.22,.05,.56,.02,1.36,.02,1.36,0,0,.42-.47,.77-1.03,.35-.56,.44-.98,.8-2.29,.35-1.31-.28-2.43-.28-2.43,0,0-.3,.09-.77,.33-.47,.23-1.5,.82-1.5,.82,0,0,.07,.54,.35,1.03Z"/><path class="cls-1" d="M261.73,77.97c.75,.4,.91,.4,1.03,.33,.12-.07,1.15-1.08,1.57-2.48,.42-1.4,.44-2.55,.44-2.55,0,0-1.85,2.27-2.43,2.55-.59,.28-1.26,.19-1.26,.19l-4.66-1.54s-.21-.56-.12-1.73c.09-1.17,.75-2.62,.75-2.62,0,0-1.45,.84-2.11,1.73-.66,.89-1.08,1.68-1.19,2.32-.12,.63-.14,1.68-.14,1.68,0,0,3.53,.37,5.05,.84,1.52,.47,2.32,.89,3.06,1.29Z"/><path class="cls-1" d="M299.34,142s2.71-1.66,6.77-3.31c4.07-1.66,11.19-1.46,11.79-1.66,.6-.2,.85-.35,.9-1.51,.05-1.15-.4-1.81-1.51-2.46-10.38-3.3-17.97,8.93-17.97,8.93Z"/><path class="cls-1" d="M320.06,139.24c-1.15-.4-4.52-.25-9.84,1.5-5.32,1.76-7.97,5.67-9.13,7.38,12.38-5.67,18.7-2.95,20.47-4.37,1.89-1.6,.65-4.37-1.5-4.52Z"/><path class="cls-1" d="M305.11,153.39s1.5-.35,3.01-1.05c1.51-.7,3.61-1.26,6.67-1.71s7.07,.5,8.58-.55c1.91-1.48,.43-3.67-1.86-3.96-9.93-1.59-16.41,7.28-16.41,7.28Z"/><path class="cls-1" d="M322.77,151.64c-2.06,.15-3.71,.95-7.03,2.51-3.31,1.56-6.12,4.82-6.12,4.82,0,0,.9-.25,2.21-.65,1.31-.4,3.76-1.26,6.32-1.81,2.56-.55,5.92-.55,7.08-1.3,1.15-.75,1.31-1.66,.8-2.51-.5-.85-1.2-1.2-3.26-1.05Z"/><path class="cls-1" d="M328.09,156.66c-.95-.3-1.91-.35-4.37,.5-2.46,.85-6.47,4.37-6.37,4.52,6.99-1.68,8.88-.8,10.19-1.05,2.35-.33,2.47-2.93,.55-3.96Z"/></svg>